<svg width="22" height="22" viewBox="0 0 22 22" fill="none" xmlns="http://www.w3.org/2000/svg">
<g id="Group 1">
<path id="Vector" d="M4.88006 9.39378C4.78259 9.50515 4.72274 9.64432 4.70884 9.7915C4.6951 9.93885 4.72797 10.0867 4.80304 10.2143C5.6634 11.631 6.69316 12.9375 7.86965 14.1051C9.03731 15.2816 10.3438 16.3114 11.7606 17.1717C11.888 17.2468 12.0359 17.2797 12.1832 17.2659C12.3304 17.252 12.4696 17.1922 12.5809 17.0947L14.6068 15.3403C15.0085 14.9926 15.5637 14.8826 16.0675 15.0507L20.576 16.5559C20.7848 16.6237 20.958 16.7719 21.0573 16.9676C21.1565 17.1636 21.1739 17.3908 21.1052 17.5994C20.777 18.5037 20.2409 19.3183 19.5403 19.9775C16.136 23.3794 9.44915 22.2121 4.60579 17.369C-0.23716 12.5256 -1.40478 5.83848 1.99722 2.43444C2.65643 1.7337 3.47099 1.19778 4.37536 0.869562C4.58387 0.800879 4.81118 0.818211 5.00711 0.917477C5.20286 1.01674 5.35102 1.18993 5.41889 1.39876L6.92406 5.9072C7.09217 6.41105 6.98212 6.96626 6.63444 7.36792L4.88006 9.39378ZM10.7985 0.825684V2.23243C13.1696 2.23505 15.443 3.17816 17.1197 4.8549C18.7965 6.53164 19.7396 8.80495 19.7422 11.1761H21.1489C21.1458 8.43198 20.0544 5.80105 18.1141 3.86061C16.1735 1.92025 13.5428 0.828823 10.7986 0.825725L10.7985 0.825684ZM10.7984 4.6951V6.10185H10.7982C12.1436 6.10332 13.4334 6.63839 14.3847 7.58969C15.336 8.54099 15.8712 9.83077 15.8727 11.1762H17.2794C17.2775 9.45792 16.5939 7.81045 15.379 6.59573C14.1639 5.38068 12.5166 4.69724 10.7981 4.69527L10.7984 4.6951Z" fill="#4777A7"/>
</g>
</svg>
