<svg width="22" height="17" viewBox="0 0 22 17" fill="none" xmlns="http://www.w3.org/2000/svg">
<path d="M19.2915 0.781006H1.88412C1.59838 0.781006 1.33088 0.851254 1.08887 0.967042L10.5466 10.4247L12.6663 8.38754C12.6663 8.38754 12.6665 8.38733 12.6666 8.38725C12.6666 8.38717 12.6668 8.38708 12.6668 8.38708L20.087 0.967207C19.845 0.851337 19.5773 0.781006 19.2915 0.781006Z" fill="#59A2DB"/>
<path d="M20.9624 1.84253L13.9795 8.82504L20.9621 15.8077C21.0779 15.5656 21.1482 15.2981 21.1482 15.0124V2.63749C21.1482 2.35192 21.0781 2.08446 20.9624 1.84253Z" fill="#59A2DB"/>
<path d="M0.214357 1.84204C0.0985686 2.08405 0.0283203 2.35156 0.0283203 2.63729V15.0122C0.0283203 15.2978 0.0984861 15.5653 0.214192 15.8073L7.19707 8.82475L0.214357 1.84204Z" fill="#59A2DB"/>
<path d="M13.1044 9.70003L10.9843 11.7375C10.8635 11.8583 10.7052 11.9188 10.5469 11.9188C10.3886 11.9188 10.2303 11.8583 10.1094 11.7375L8.07187 9.69995L1.08887 16.6825C1.33092 16.7984 1.59859 16.8687 1.88441 16.8687H19.2918C19.5775 16.8687 19.845 16.7985 20.087 16.6827L13.1044 9.70003Z" fill="#59A2DB"/>
</svg>
