<svg width="56" height="55" viewBox="0 0 56 55" fill="none" xmlns="http://www.w3.org/2000/svg">
<g id="Frame" clip-path="url(#clip0_583_314)">
<g id="Group">
<path id="Vector" d="M49.3828 55.0001C36.155 55.0001 22.9271 55.0001 9.69926 55.0001C9.64124 54.9711 9.61223 54.942 9.55421 54.913C6.68238 54.2748 5.08691 52.2733 5.08691 49.3434C5.08691 34.8102 5.08691 20.277 5.08691 5.77273C5.08691 2.40776 7.37858 0.116089 10.7146 0.116089C23.3622 0.116089 36.0099 0.116089 48.6866 0.116089C49.7889 0.116089 50.137 0.46419 50.137 1.56651C50.137 18.8846 50.137 36.2316 50.137 53.5496C50.166 54.1878 49.963 54.681 49.3828 55.0001ZM47.9904 2.29172C35.8359 2.29172 23.7103 2.29172 11.5558 2.29172C11.5558 2.5528 11.5558 2.75586 11.5558 2.95892C11.5558 7.94837 11.5558 12.9668 11.5558 17.9563C11.5558 18.1593 11.5558 18.3624 11.5558 18.5364C11.4978 19.0876 11.0336 19.4937 10.4825 19.4937C9.96033 19.4937 9.4962 19.0876 9.40917 18.5364C9.38016 18.3624 9.40917 18.1883 9.40917 18.0143C9.40917 13.0248 9.40917 8.03539 9.40917 3.07495C9.40917 2.87189 9.40917 2.69784 9.40917 2.49478C8.10379 2.87189 7.26255 4.09025 7.26255 5.54067C7.26255 18.6525 7.26255 31.7643 7.26255 44.8761C7.26255 44.9921 7.29156 45.1372 7.29156 45.2242C8.01677 44.9051 8.68396 44.615 9.40917 44.2959C9.40917 44.1219 9.40917 43.9478 9.40917 43.7448C9.40917 38.6973 9.40917 33.6208 9.40917 28.5734C9.40917 28.3993 9.40917 28.2253 9.40917 28.0512C9.46719 27.471 9.90232 27.0359 10.4535 27.0359C11.0336 27.0359 11.4978 27.471 11.5268 28.0802C11.5268 28.2543 11.5268 28.3993 11.5268 28.5734C11.5268 33.5918 11.5268 38.6103 11.5268 43.6287C11.5268 43.8318 11.5268 44.0349 11.5268 44.2669C23.7103 44.2669 35.8069 44.2669 47.9614 44.2669C47.9904 30.2559 47.9904 16.2738 47.9904 2.29172ZM47.9904 50.7068C47.7293 50.7068 47.5263 50.7068 47.3232 50.7068C35.1977 50.7068 23.1012 50.7068 10.9756 50.7068C10.8016 50.7068 10.6275 50.7068 10.4535 50.7068C9.8443 50.6488 9.40917 50.1847 9.40917 49.6335C9.40917 49.0823 9.8443 48.6472 10.4245 48.5892C10.6275 48.5602 10.8306 48.5892 11.0046 48.5892C23.1012 48.5892 35.1977 48.5892 47.2942 48.5892C47.5263 48.5892 47.7293 48.5892 47.9614 48.5892C47.9614 47.835 47.9614 47.1678 47.9614 46.4426C47.7293 46.4426 47.5263 46.4426 47.2942 46.4426C36.242 46.4426 25.2188 46.4426 14.1666 46.4426C12.9192 46.4426 11.6718 46.4426 10.4245 46.4426C9.38016 46.4426 8.50991 46.8777 7.90073 47.7189C7.14651 48.7632 7.00147 49.8946 7.58164 51.0549C8.19082 52.3023 9.23512 52.8534 10.6275 52.8534C22.8981 52.8534 35.1687 52.8534 47.4682 52.8534C47.6423 52.8534 47.8163 52.8534 47.9904 52.8534C47.9904 52.0992 47.9904 51.461 47.9904 50.7068Z" fill="#444444"/>
<path id="Vector_2" d="M49.3824 55C49.9626 54.6809 50.1366 54.1878 50.1366 53.5496C50.1366 36.2315 50.1366 18.8845 50.1366 1.56646C50.1366 0.464135 49.7885 0.116034 48.6862 0.116034C36.0385 0.116034 23.3909 0.116034 10.7142 0.116034C7.34919 0.116034 5.08653 2.4077 5.08653 5.77268C5.08653 20.3059 5.08653 34.8391 5.08653 49.3434C5.08653 52.2732 6.711 54.2748 9.55383 54.913C9.61185 54.913 9.64086 54.971 9.69887 55C6.47894 55 3.259 55 0.0390625 55C0.0680709 36.6667 0.0680709 18.3333 0.0680709 0C18.4014 0 36.7057 0 55.0681 0C55.0681 18.3333 55.0681 36.6667 55.0681 55C53.1825 55 51.297 55 49.3824 55Z" fill="white"/>
<path id="Vector_3" d="M47.9899 2.2917C47.9899 16.3028 47.9899 30.2558 47.9899 44.2379C35.8353 44.2379 23.7388 44.2379 11.5553 44.2379C11.5553 44.0058 11.5553 43.8028 11.5553 43.5997C11.5553 38.5813 11.5553 33.5628 11.5553 28.5443C11.5553 28.3703 11.5553 28.2252 11.5553 28.0512C11.4972 27.442 11.0331 27.0069 10.4819 27.0069C9.93078 27.0069 9.49566 27.442 9.43764 28.0222C9.40863 28.1962 9.43764 28.3703 9.43764 28.5443C9.43764 33.5918 9.43764 38.6683 9.43764 43.7157C9.43764 43.9188 9.43764 44.0929 9.43764 44.2669C8.71243 44.586 8.04524 44.8761 7.32002 45.1952C7.32002 45.1082 7.29102 44.9631 7.29102 44.8471C7.29102 31.7353 7.29102 18.6235 7.29102 5.51164C7.29102 4.06122 8.13226 2.84286 9.43764 2.46575C9.43764 2.66881 9.43764 2.87187 9.43764 3.04592C9.43764 8.03537 9.43764 13.0248 9.43764 17.9853C9.43764 18.1593 9.43764 18.3334 9.43764 18.5074C9.49566 19.0586 9.95979 19.4647 10.511 19.4647C11.0331 19.4647 11.4972 19.0586 11.5843 18.5074C11.6133 18.3044 11.5843 18.1013 11.5843 17.9273C11.5843 12.9378 11.5843 7.91934 11.5843 2.92989C11.5843 2.72683 11.5843 2.49476 11.5843 2.2627C23.6808 2.2917 35.8063 2.2917 47.9899 2.2917ZM45.8432 23.3228C45.8432 17.4921 45.8432 11.6324 45.8432 5.80172C45.8432 4.75742 45.4951 4.40932 44.4798 4.40932C34.675 4.40932 24.8701 4.40932 15.0653 4.40932C14.05 4.40932 13.7019 4.75742 13.7019 5.80172C13.7019 17.4341 13.7019 29.0955 13.7019 40.7279C13.7019 41.7722 14.05 42.1203 15.1233 42.1203C24.8991 42.1203 34.675 42.1203 44.4508 42.1203C45.5532 42.1203 45.8722 41.7722 45.8722 40.6699C45.8432 34.8972 45.8432 29.0955 45.8432 23.3228ZM9.40863 23.2068C9.37962 23.787 9.87277 24.3091 10.4529 24.3091C11.0331 24.3091 11.5262 23.845 11.5262 23.2938C11.5553 22.7136 11.0911 22.2205 10.54 22.1915C9.95979 22.1625 9.43764 22.6266 9.40863 23.2068Z" fill="white"/>
<path id="Vector_4" d="M47.9903 50.7067C47.9903 51.4609 47.9903 52.1281 47.9903 52.8533C47.8162 52.8533 47.6422 52.8533 47.4681 52.8533C35.1976 52.8533 22.927 52.8533 10.6274 52.8533C9.26402 52.8533 8.19071 52.2732 7.58153 51.0548C7.00136 49.8945 7.11739 48.7631 7.90062 47.7188C8.5098 46.8776 9.38005 46.4425 10.4244 46.4425C11.6717 46.4134 12.9191 46.4425 14.1664 46.4425C25.2187 46.4425 36.2419 46.4425 47.2941 46.4425C47.4971 46.4425 47.7002 46.4425 47.9613 46.4425C47.9613 47.1677 47.9613 47.8349 47.9613 48.5891C47.7292 48.5891 47.5261 48.5891 47.2941 48.5891C35.1976 48.5891 23.101 48.5891 11.0045 48.5891C10.8015 48.5891 10.5984 48.5891 10.4244 48.5891C9.84419 48.6471 9.40906 49.0822 9.40906 49.6334C9.40906 50.2136 9.84419 50.6777 10.4534 50.7067C10.6274 50.7067 10.8015 50.7067 10.9755 50.7067C23.101 50.7067 35.1976 50.7067 47.3231 50.7067C47.5261 50.7067 47.7292 50.7067 47.9903 50.7067Z" fill="white"/>
<path id="Vector_5" d="M45.8432 23.3227C45.8432 29.1244 45.8432 34.8971 45.8432 40.6988C45.8432 41.8011 45.4951 42.1492 44.4218 42.1492C34.6459 42.1492 24.8701 42.1492 15.0943 42.1492C14.021 42.1492 13.6729 41.8011 13.6729 40.7568C13.6729 29.1244 13.6729 17.463 13.6729 5.83064C13.6729 4.78633 14.021 4.43823 15.0362 4.43823C24.8411 4.43823 34.646 4.43823 44.4508 4.43823C45.4661 4.43823 45.8142 4.81534 45.8142 5.83064C45.8432 11.6323 45.8432 17.463 45.8432 23.3227ZM15.8775 6.55585C15.8775 17.7241 15.8775 28.8343 15.8775 39.9446C25.1892 39.9446 34.4429 39.9446 43.6966 39.9446C43.6966 28.8053 43.6966 17.6951 43.6966 6.55585C34.4139 6.55585 25.1602 6.55585 15.8775 6.55585Z" fill="#4777A7"/>
<path id="Vector_6" d="M9.40844 23.2067C9.43745 22.6265 9.9596 22.1334 10.5398 22.1914C11.1199 22.2204 11.5551 22.7426 11.5261 23.2937C11.4971 23.8739 11.0039 24.338 10.4527 24.309C9.87258 24.309 9.37944 23.8159 9.40844 23.2067Z" fill="#4777A7"/>
<path id="Vector_7" d="M15.8779 6.55591C25.1606 6.55591 34.4143 6.55591 43.697 6.55591C43.697 17.6951 43.697 28.8054 43.697 39.9446C34.4433 39.9446 25.1896 39.9446 15.8779 39.9446C15.8779 28.8344 15.8779 17.7242 15.8779 6.55591ZM28.3806 23.7869C28.4096 23.7869 28.4386 23.7869 28.4676 23.7579C28.5546 23.903 28.6416 24.048 28.6997 24.193C29.3378 25.4404 29.947 26.6878 30.5852 27.9351C30.8463 28.4573 31.3104 28.6893 31.8036 28.6023C32.3257 28.4863 32.6448 28.0512 32.6738 27.471C32.6738 24.6862 32.6738 21.9014 32.6738 19.1166C32.6738 18.3914 32.2097 17.8982 31.5715 17.9272C30.9623 17.9272 30.5272 18.3914 30.5272 19.1166C30.5272 20.2189 30.5272 21.2922 30.5272 22.3945C30.5272 22.5396 30.4982 22.6846 30.4982 22.9747C29.773 21.5533 29.1348 20.2479 28.4966 18.9715C28.0615 18.1303 27.6263 17.8402 27.0752 17.9852C26.495 18.1303 26.263 18.5364 26.263 19.4937C26.263 21.8143 26.263 24.135 26.263 26.4557C26.263 26.8618 26.2339 27.2679 26.263 27.6741C26.292 28.2252 26.6981 28.6023 27.2202 28.6603C27.7424 28.7184 28.2065 28.3703 28.3516 27.8771C28.4096 27.674 28.4096 27.442 28.4096 27.2389C28.3806 26.0496 28.3806 24.9182 28.3806 23.7869ZM38.5335 24.9182C38.6205 25.8755 38.2434 26.4557 37.5182 26.4557C36.822 26.4847 36.4159 25.9626 36.4159 25.0633C36.4159 23.7869 36.4159 22.5396 36.4159 21.2632C36.4159 20.625 36.677 20.2479 37.1701 20.1028C37.6633 19.9288 38.0984 20.1028 38.4465 20.625C38.8816 21.2342 39.4618 21.3792 40.0129 21.0311C40.5061 20.683 40.6221 20.0738 40.245 19.4647C39.5198 18.2463 38.0984 17.6661 36.677 18.0142C35.3136 18.3623 34.2983 19.6097 34.2983 21.0311C34.2693 22.5396 34.2693 24.019 34.2983 25.5274C34.3273 27.1519 35.6037 28.4863 37.2281 28.6313C38.8526 28.7764 40.332 27.6741 40.6221 26.0786C40.7092 25.6145 40.7092 25.1213 40.7092 24.6282C40.7092 22.9457 40.4771 22.7136 38.7946 22.7426C38.0404 22.7426 37.5762 23.0907 37.5182 23.6999C37.4312 24.2801 37.7503 24.6862 38.5335 24.9182ZM21.0124 20.0448C21.9117 20.0448 22.7819 20.0448 23.6232 20.0448C24.2904 20.0448 24.7255 19.5807 24.7255 19.0005C24.7255 18.3914 24.2904 17.9272 23.6522 17.9272C22.4338 17.8982 21.1865 17.8982 19.9681 17.9272C19.3299 17.9272 18.8658 18.3623 18.8658 19.0005C18.8368 21.8434 18.8368 24.7152 18.8658 27.558C18.8658 28.1672 19.2719 28.6023 19.8521 28.6313C21.1575 28.6603 22.4628 28.6603 23.7682 28.6313C24.3484 28.6313 24.7545 28.1382 24.7545 27.558C24.7545 27.0069 24.3484 26.5427 23.7392 26.5137C23.5362 26.4847 23.3041 26.5137 23.101 26.5137C22.4048 26.5137 21.7376 26.5137 21.0414 26.5137C21.0414 25.7595 21.0414 25.0923 21.0414 24.3671C21.5346 24.3671 22.0277 24.3671 22.4919 24.3671C23.159 24.3381 23.6522 23.903 23.6522 23.2938C23.6522 22.6846 23.159 22.2495 22.4919 22.2205C22.0277 22.2205 21.5346 22.2205 21.0414 22.2205C21.0124 21.4662 21.0124 20.7991 21.0124 20.0448Z" fill="white"/>
<path id="Vector_8" d="M28.3802 23.7869C28.3802 24.9182 28.3802 26.0495 28.3802 27.1808C28.3802 27.3839 28.3802 27.616 28.3222 27.819C28.1772 28.3412 27.713 28.6603 27.1909 28.6023C26.6687 28.5442 26.2626 28.1381 26.2336 27.616C26.2046 27.2099 26.2336 26.8037 26.2336 26.3976C26.2336 24.0769 26.2336 21.7563 26.2336 19.4356C26.2336 18.5073 26.4657 18.1012 27.0458 17.9272C27.626 17.7821 28.0611 18.0722 28.4672 18.9134C29.1054 20.1898 29.7436 21.4952 30.4688 22.9166C30.4978 22.6265 30.4978 22.4815 30.4978 22.3364C30.4978 21.2341 30.4978 20.1608 30.4978 19.0585C30.4978 18.3623 30.933 17.8981 31.5421 17.8691C32.1803 17.8691 32.6445 18.3333 32.6445 19.0585C32.6445 21.8433 32.6445 24.6281 32.6445 27.4129C32.6445 28.0221 32.2964 28.4572 31.7742 28.5442C31.2811 28.6603 30.8169 28.4282 30.5559 27.8771C29.9177 26.6297 29.3085 25.3823 28.6703 24.135C28.5833 23.9899 28.4963 23.8449 28.4382 23.6998C28.4382 23.7579 28.4092 23.7869 28.3802 23.7869Z" fill="#4777A7"/>
<path id="Vector_9" d="M38.5331 24.9183C37.7788 24.6862 37.4307 24.2801 37.4888 23.6709C37.5468 23.0908 38.0399 22.7427 38.7651 22.7137C40.4766 22.6846 40.6797 22.9167 40.6797 24.5992C40.6797 25.0923 40.6797 25.5565 40.5927 26.0496C40.2736 27.6451 38.7941 28.7474 37.1987 28.6024C35.6032 28.4573 34.2978 27.1229 34.2688 25.4985C34.2398 23.99 34.2398 22.5106 34.2688 21.0022C34.2978 19.5807 35.2841 18.3334 36.6475 17.9853C38.0399 17.6372 39.4613 18.2173 40.2156 19.4357C40.5927 20.0449 40.4766 20.6541 39.9835 21.0022C39.4613 21.3793 38.8522 21.2052 38.417 20.596C38.0399 20.0739 37.6338 19.8998 37.1407 20.0739C36.6475 20.2479 36.4154 20.625 36.3864 21.2342C36.3864 22.5106 36.3864 23.758 36.3864 25.0343C36.3864 25.9336 36.7926 26.4557 37.4888 26.4267C38.214 26.4557 38.5911 25.8756 38.5331 24.9183Z" fill="#4777A7"/>
<path id="Vector_10" d="M21.0118 20.0448C21.0118 20.7991 21.0118 21.4663 21.0118 22.1915C21.5049 22.1915 21.9981 22.1915 22.4622 22.1915C23.1294 22.1915 23.6225 22.6556 23.6225 23.2648C23.6225 23.874 23.1294 24.3091 22.4622 24.3381C21.9981 24.3381 21.5049 24.3381 21.0118 24.3381C21.0118 25.0633 21.0118 25.7305 21.0118 26.4847C21.708 26.4847 22.4042 26.4847 23.0714 26.4847C23.2744 26.4847 23.5065 26.4847 23.7096 26.4847C24.2897 26.5427 24.6958 26.9779 24.7248 27.529C24.7248 28.1092 24.3187 28.5733 23.7386 28.6023C22.4332 28.6313 21.1278 28.6313 19.8224 28.6023C19.2423 28.6023 18.8361 28.1382 18.8361 27.529C18.8361 24.6862 18.8071 21.8144 18.8361 18.9715C18.8361 18.3333 19.3003 17.8982 19.9385 17.8982C21.1568 17.8692 22.4042 17.8692 23.6225 17.8982C24.2897 17.8982 24.7248 18.3624 24.6958 18.9715C24.6958 19.5807 24.2317 20.0158 23.5935 20.0158C22.7813 20.0448 21.911 20.0448 21.0118 20.0448Z" fill="#4777A7"/>
</g>
</g>
<defs>
<clipPath id="clip0_583_314">
<rect width="55" height="55" fill="white" transform="translate(0.0683594)"/>
</clipPath>
</defs>
</svg>
