<svg width="56" height="55" viewBox="0 0 56 55" fill="none" xmlns="http://www.w3.org/2000/svg">
<g id="Frame" clip-path="url(#clip0_583_281)">
<g id="Group">
<path id="Vector" d="M55.6895 31.0905C55.6895 33.049 55.6895 35.0346 55.6895 36.9931C55.6623 36.8843 55.6079 36.7483 55.5807 36.6395C55.1726 35.1162 54.1934 34.137 52.6702 33.729C52.235 33.6202 51.7453 33.6202 51.2829 33.6202C49.8141 33.593 48.318 33.6202 46.7948 33.6202C46.7948 33.0218 46.7948 32.4777 46.7948 31.9337C46.7948 30.0569 45.7612 29.0232 43.8843 28.996C42.2523 28.996 40.6474 28.996 39.0154 28.996C37.1113 28.996 36.0777 30.0297 36.0777 31.9609C36.0777 32.5049 36.0777 33.049 36.0777 33.6202C34.4456 33.6202 32.8952 33.593 31.3447 33.6202C28.7879 33.6474 27.183 35.2794 27.183 37.8363C27.183 42.1612 27.1558 46.4862 27.2102 50.8111C27.2102 51.4911 27.3734 52.1983 27.6454 52.8239C28.1895 54.1024 29.3047 54.728 30.6375 55C20.6548 55 10.6993 55 0.716654 55C0.689453 36.6667 0.689453 18.3333 0.689453 0C19.0228 0 37.3561 0 55.6895 0C55.6895 8.51385 55.6895 17.0005 55.6895 25.5143C55.6623 25.4327 55.6078 25.3511 55.6078 25.2695C55.091 22.1958 53.3502 20.1286 50.4669 19.0134C49.1069 18.4965 47.6924 18.5509 46.278 18.5509C45.6252 18.5509 44.9723 18.5509 44.2379 18.5509C44.3467 18.4149 44.3739 18.3605 44.4283 18.3061C45.598 17.0005 46.278 15.5045 46.3052 13.7636C46.3596 10.9619 46.3324 8.16024 46.3596 5.35856C46.3596 4.05292 46.3596 2.74728 46.3596 1.44164C46.3596 0.544016 45.9516 0.108803 45.1083 0.108803C42.3339 0.108803 39.5322 0.0816024 36.7577 0.108803C34.0376 0.163205 31.7528 2.44807 31.6984 5.16815C31.6712 7.94263 31.6712 10.7443 31.6984 13.5188C31.6984 15.2868 32.3512 16.8373 33.4664 18.1701C33.548 18.2789 33.6296 18.3877 33.7112 18.4965C29.9031 18.4965 26.1494 18.4965 22.2869 18.4965C24.0549 16.6469 24.4629 14.498 24.4085 12.1044C24.3269 8.56825 24.3813 5.03215 24.3813 1.49604C24.3813 0.435213 24.0277 0.0816024 22.9669 0.0816024C20.3828 0.0816024 17.826 0.0816024 15.2419 0.0816024C11.9778 0.0816024 9.72012 2.33927 9.69291 5.60336C9.69291 8.10584 9.69291 10.6083 9.69291 13.1108C9.69291 14.4436 9.93772 15.7221 10.6177 16.8645C10.9442 17.4357 11.3522 17.9525 11.7602 18.5509C11.4882 18.5509 11.2706 18.5509 11.053 18.5509C10.0465 18.5781 9.0401 18.5237 8.06087 18.6869C3.79034 19.4486 0.825457 22.9847 0.798256 27.364C0.771055 31.7161 0.798256 36.041 0.798256 40.3932C0.798256 41.3724 1.17907 41.7804 2.1583 41.7804C7.59845 41.7804 13.0658 41.7804 18.506 41.7804C18.6964 41.7804 18.914 41.7532 19.0772 41.726C19.5396 41.6172 19.866 41.1548 19.866 40.6924C19.866 40.23 19.5124 39.7948 19.05 39.686C18.8052 39.6315 18.5604 39.6316 18.3156 39.6316C15.0243 39.6316 11.733 39.6316 8.44168 39.6316C8.22407 39.6316 8.03367 39.6044 7.76166 39.6044C7.76166 39.3595 7.76166 39.1691 7.76166 38.9787C7.76166 37.0203 7.76166 35.089 7.76166 33.1306C7.76166 32.9402 7.76166 32.7226 7.73446 32.5321C7.65286 32.0425 7.24484 31.6617 6.72803 31.6345C6.26562 31.6073 5.8032 31.9337 5.6944 32.3961C5.64 32.6137 5.6128 32.8586 5.6128 33.0762C5.6128 34.9802 5.6128 36.9115 5.6128 38.8155C5.6128 39.0603 5.6128 39.3051 5.6128 39.5772C4.68797 39.5772 3.81754 39.5772 2.94712 39.5772C2.91992 39.4683 2.91992 39.4139 2.91992 39.3323C2.91992 35.1978 2.89272 31.0905 2.94712 26.956C2.97432 24.0999 5.09598 21.5158 7.92486 20.9446C9.2305 20.6726 10.5905 20.7814 11.9234 20.6998C12.3042 20.6726 12.549 20.8086 12.7394 21.135C13.7186 22.6311 14.7251 24.0999 15.7043 25.5959C15.8675 25.8408 15.9763 26.1944 15.9763 26.4664C16.0035 28.3704 15.9763 30.3017 16.0035 32.2057C16.0035 32.9402 16.4387 33.4298 17.0643 33.4298C17.6627 33.4298 18.098 32.9674 18.1252 32.2601C18.1252 32.1241 18.1252 31.9609 18.1252 31.8249C18.1252 30.0297 18.1252 28.2072 18.1252 26.412C18.1252 26.1944 18.1796 25.9224 18.2884 25.7591C19.458 24.1543 20.6276 22.5767 21.8245 20.9718C21.9333 20.8358 22.1509 20.6998 22.3413 20.6998C23.5381 20.6726 24.735 20.6726 25.9318 20.6998C28.5159 20.7814 30.6647 22.4135 31.3447 24.8071C31.5079 25.4327 31.5624 26.1128 31.5896 26.7656C31.6168 28.0984 31.5896 29.4585 31.6168 30.7913C31.6168 31.3625 31.9704 31.7433 32.46 31.8249C32.9496 31.9065 33.3576 31.7433 33.5752 31.3081C33.684 31.0905 33.7384 30.8185 33.7384 30.5737C33.7656 29.1864 33.7656 27.8264 33.7384 26.4392C33.7112 24.5079 33.1128 22.7943 31.8616 21.3254C31.6984 21.135 31.5352 20.9718 31.3175 20.6998C32.188 20.6998 32.9224 20.727 33.6568 20.6998C34.0104 20.6998 34.2008 20.8086 34.3912 21.1078C35.4793 22.7399 36.5673 24.3719 37.6553 26.004C38.3081 26.956 39.0698 26.9832 39.7498 26.0584C40.9738 24.3991 42.1979 22.7127 43.4491 21.0806C43.5851 20.8902 43.9115 20.727 44.1291 20.727C45.2988 20.6998 46.4412 20.6998 47.6108 20.727C48.0732 20.727 48.5356 20.7814 48.9981 20.863C51.6365 21.4614 53.4318 23.6919 53.459 26.412C53.4862 27.8264 53.459 29.2409 53.459 30.6553C53.459 31.4985 54.0846 32.0697 54.7918 31.7977C55.1998 31.6889 55.4174 31.3353 55.6895 31.0905ZM23.3205 39.6316C22.7493 39.6316 22.2597 40.1212 22.2869 40.6924C22.2869 41.2636 22.8037 41.726 23.3749 41.726C23.9461 41.726 24.4357 41.2364 24.4085 40.6652C24.3813 40.094 23.8917 39.6316 23.3205 39.6316Z" fill="white"/>
<path id="Vector_2" d="M55.6896 31.0905C55.4176 31.3353 55.1999 31.6889 54.8735 31.7977C54.1663 32.0426 53.5407 31.4985 53.5407 30.6553C53.5407 29.2409 53.5407 27.8264 53.5407 26.412C53.5135 23.6919 51.7182 21.4614 49.0798 20.863C48.6174 20.7542 48.1549 20.727 47.6925 20.727C46.5229 20.6998 45.3805 20.6998 44.2108 20.727C43.966 20.727 43.6668 20.8902 43.5308 21.0806C42.2796 22.7399 41.0555 24.3991 39.8315 26.0584C39.1515 26.9832 38.3899 26.956 37.737 26.004C36.649 24.3719 35.561 22.7399 34.4729 21.1078C34.2825 20.8086 34.0921 20.6998 33.7385 20.6998C33.0041 20.727 32.2425 20.6998 31.3993 20.6998C31.6169 20.9718 31.7801 21.135 31.9433 21.3254C33.1945 22.7943 33.7929 24.5079 33.8201 26.4392C33.8473 27.8264 33.8201 29.1865 33.8201 30.5737C33.8201 30.8185 33.7657 31.0905 33.6569 31.3081C33.4393 31.7433 33.0313 31.9065 32.5417 31.8249C32.0521 31.7433 31.7257 31.3625 31.6985 30.7913C31.6713 29.4585 31.6985 28.0984 31.6713 26.7656C31.6441 26.1128 31.6169 25.4328 31.4265 24.8071C30.7736 22.4135 28.5976 20.7814 26.0135 20.6998C24.8167 20.6726 23.6198 20.6726 22.423 20.6998C22.2598 20.6998 22.015 20.8358 21.9062 20.9718C20.7093 22.5495 19.5397 24.1543 18.3701 25.7592C18.2341 25.9224 18.2069 26.1944 18.2069 26.412C18.2069 28.2072 18.2069 30.0297 18.2069 31.8249C18.2069 31.9609 18.2069 32.1242 18.2069 32.2602C18.1525 32.9674 17.7445 33.4298 17.146 33.4298C16.5204 33.4298 16.0852 32.9402 16.0852 32.2058C16.0852 30.3017 16.0852 28.3704 16.058 26.4664C16.058 26.1672 15.9492 25.8408 15.786 25.596C14.8068 24.0999 13.8003 22.6311 12.8211 21.135C12.6035 20.8086 12.3859 20.6998 12.0051 20.6998C10.6723 20.7814 9.31221 20.6726 8.00657 20.9446C5.12329 21.5158 3.00163 24.0999 2.97443 26.956C2.92003 31.0905 2.94723 35.1978 2.94723 39.3324C2.94723 39.414 2.97443 39.4684 2.97443 39.5772C3.84485 39.5772 4.71528 39.5772 5.64011 39.5772C5.64011 39.3052 5.64011 39.0604 5.64011 38.8155C5.64011 36.9115 5.64011 34.9802 5.64011 33.0762C5.64011 32.8586 5.66731 32.6138 5.72171 32.3962C5.85771 31.9337 6.29292 31.6073 6.75534 31.6345C7.24495 31.6617 7.68017 32.0154 7.76177 32.5322C7.78897 32.7226 7.78897 32.913 7.78897 33.1306C7.78897 35.089 7.78897 37.0203 7.78897 38.9788C7.78897 39.1692 7.78897 39.3596 7.78897 39.6044C8.03378 39.6044 8.25138 39.6316 8.46899 39.6316C11.7603 39.6316 15.0516 39.6316 18.3429 39.6316C18.5877 39.6316 18.8325 39.6316 19.0773 39.686C19.5397 39.7676 19.8933 40.2028 19.8933 40.6924C19.8933 41.1548 19.5669 41.6172 19.1045 41.726C18.9141 41.7804 18.7237 41.7804 18.5333 41.7804C13.0931 41.7804 7.62576 41.7804 2.18561 41.7804C1.20638 41.7804 0.825566 41.3724 0.825566 40.3932C0.825566 36.0411 0.798365 31.7161 0.825566 27.364C0.852767 22.9847 3.81765 19.4486 8.11538 18.7142C9.09461 18.551 10.101 18.6054 11.1075 18.5782C11.3251 18.5782 11.5427 18.5782 11.8147 18.5782C11.4067 17.9797 10.9987 17.4629 10.6723 16.8917C9.99223 15.7493 9.74743 14.4708 9.74743 13.138C9.74743 10.6355 9.74743 8.13306 9.74743 5.63058C9.74743 2.36649 12.0323 0.108822 15.2964 0.108822C17.8805 0.108822 20.4373 0.108822 23.0214 0.108822C24.0822 0.108822 24.4359 0.462432 24.4359 1.52326C24.4359 5.05937 24.3815 8.59547 24.4631 12.1316C24.5175 14.498 24.1094 16.6741 22.3414 18.5238C26.2039 18.5238 29.9576 18.5238 33.7657 18.5238C33.6841 18.3878 33.6025 18.279 33.5209 18.1973C32.3785 16.8645 31.7529 15.3141 31.7529 13.546C31.7257 10.7715 31.7257 7.96985 31.7529 5.19537C31.7801 2.50249 34.0921 0.190425 36.8122 0.136023C39.5867 0.0816214 42.3884 0.108822 45.1629 0.136023C46.0061 0.136023 46.3869 0.571236 46.4141 1.46886C46.4141 2.7745 46.4141 4.08014 46.4141 5.38578C46.4141 8.18746 46.4141 10.9891 46.3597 13.7908C46.3325 15.5317 45.6253 17.0549 44.4828 18.3334C44.4284 18.3878 44.4012 18.4422 44.2924 18.5782C45.0269 18.5782 45.6797 18.5782 46.3325 18.5782C47.7469 18.5782 49.1614 18.5238 50.5214 19.0406C53.4047 20.1558 55.1455 22.2231 55.6624 25.2968C55.6896 25.3784 55.7168 25.46 55.744 25.5416C55.6896 27.364 55.6896 29.2409 55.6896 31.0905ZM11.8691 9.95551C11.8691 11.0707 11.8691 12.1316 11.8691 13.1924C11.8963 14.9605 12.5763 16.4021 13.9635 17.5173C16.602 19.639 20.8997 18.3334 21.9334 15.0965C22.559 13.1108 22.0966 11.0979 22.287 8.94908C20.8997 9.95551 19.4309 9.98271 17.9621 9.95551C16.1396 9.92831 14.3172 9.95551 12.4947 9.95551C12.3315 9.95551 12.1139 9.95551 11.8691 9.95551ZM33.8201 9.95551C33.8201 11.3155 33.7657 12.6212 33.8473 13.8996C33.8745 14.7972 34.2281 15.6405 34.7722 16.3749C36.0778 18.1429 38.3083 18.959 40.2395 18.415C42.5244 17.7621 43.9932 16.0485 44.1564 13.7364C44.238 12.2404 44.1836 10.7443 44.1836 9.24829C44.1836 9.19389 44.1292 9.16669 44.0748 9.08508C42.8508 9.95551 41.4364 10.0099 40.0219 9.98271C38.4443 9.95551 36.8394 9.98271 35.2618 9.98271C34.7994 9.95551 34.3369 9.95551 33.8201 9.95551ZM22.2326 2.25768C19.7029 2.25768 17.2276 2.20328 14.7252 2.28489C13.5011 2.31209 12.6035 3.01931 12.1411 4.16174C11.6515 5.33137 11.9235 6.58261 11.8691 7.80665C14.4532 7.80665 16.9556 7.86105 19.4581 7.77945C20.927 7.75224 22.0966 6.60981 22.2054 5.24977C22.287 4.29774 22.2326 3.29131 22.2326 2.25768ZM44.102 2.25768C41.6268 2.25768 39.1787 2.23048 36.7034 2.25768C35.7514 2.25768 34.9898 2.7201 34.4185 3.48172C33.4121 4.81456 33.9017 6.3106 33.7929 7.77945C36.377 7.77945 38.8795 7.83385 41.3819 7.75224C42.7692 7.72504 43.9388 6.71861 44.0748 5.41298C44.2108 4.43375 44.102 3.37292 44.102 2.25768ZM38.8251 23.8007C39.5867 22.7671 40.3211 21.7879 41.0827 20.7542C39.6139 20.7542 38.2539 20.7542 36.8122 20.7542C37.465 21.7879 38.1179 22.7671 38.8251 23.8007ZM17.1188 23.8007C17.8805 22.7671 18.6149 21.7879 19.3765 20.7542C17.9077 20.7542 16.5476 20.7542 15.0788 20.7542C15.7588 21.7879 16.4116 22.7399 17.1188 23.8007Z" fill="#444444"/>
<path id="Vector_3" d="M30.6107 55C29.3051 54.7008 28.1899 54.1024 27.6187 52.824C27.3467 52.1984 27.1835 51.4911 27.1835 50.8111C27.1562 46.4862 27.1562 42.1613 27.1562 37.8364C27.1562 35.2795 28.7611 33.6474 31.318 33.6202C32.8684 33.593 34.4189 33.6202 36.0509 33.6202C36.0509 33.049 36.0509 32.505 36.0509 31.961C36.0509 30.0297 37.0573 29.0233 38.9886 28.9961C40.6206 28.9961 42.2255 28.9961 43.8575 28.9961C45.7344 28.9961 46.768 30.0297 46.768 31.9338C46.768 32.4778 46.768 33.0218 46.768 33.6202C48.3185 33.6202 49.7873 33.6202 51.2561 33.6202C51.7186 33.6202 52.2082 33.6202 52.6434 33.729C54.1666 34.1098 55.1459 35.1163 55.5539 36.6395C55.5811 36.7483 55.6355 36.8843 55.6627 36.9931C55.6627 41.8621 55.6627 46.7038 55.6627 51.5728C55.5267 51.9808 55.4179 52.3888 55.2547 52.7696C54.6562 54.048 53.5682 54.7008 52.2354 55C45.0544 55 37.819 55 30.6107 55ZM38.5262 43.3581C35.4525 43.3581 32.406 43.3581 29.3323 43.3581C29.3323 45.8878 29.3323 48.3631 29.3323 50.8383C29.3323 52.144 30.0395 52.8512 31.3724 52.8512C38.091 52.8512 44.8096 52.8512 51.5282 52.8512C52.861 52.8512 53.5682 52.144 53.5682 50.7839C53.5682 48.4719 53.5682 46.187 53.5682 43.8749C53.5682 43.7117 53.541 43.5213 53.541 43.3309C50.4673 43.3309 47.4208 43.3309 44.3744 43.3309C43.8847 45.4526 43.0143 46.323 41.4639 46.323C39.8862 46.3502 39.0158 45.4798 38.5262 43.3581ZM53.541 41.1548C53.541 39.8492 53.5682 38.598 53.541 37.3739C53.5138 36.5307 52.8338 35.8779 51.9906 35.7963C51.8002 35.7691 51.6098 35.7691 51.3922 35.7691C44.7552 35.7691 38.1182 35.7691 31.454 35.7691C31.3452 35.7691 31.2364 35.7691 31.1276 35.7691C30.0123 35.8235 29.3051 36.5307 29.3051 37.6459C29.3051 38.7068 29.3051 39.7404 29.3051 40.8012C29.3051 40.91 29.3323 41.046 29.3595 41.1276C32.4332 41.1276 35.4797 41.1276 38.5262 41.1276C38.8254 40.0668 39.043 39.9308 40.131 39.9308C40.9471 39.9308 41.7359 39.9308 42.5519 39.9308C43.8575 39.9308 43.9119 39.958 44.4016 41.1548C47.4208 41.1548 50.4401 41.1548 53.541 41.1548ZM44.6464 33.5658C44.6464 32.8858 44.6736 32.2058 44.6192 31.553C44.6192 31.3898 44.3744 31.145 44.2383 31.145C42.3615 31.1178 40.4846 31.1178 38.6078 31.145C38.4718 31.145 38.2542 31.3898 38.2542 31.5258C38.227 32.2058 38.227 32.8586 38.227 33.5658C40.403 33.5658 42.4975 33.5658 44.6464 33.5658ZM40.7294 42.1069C40.7294 42.6237 40.7022 43.0861 40.7294 43.5757C40.7566 43.9565 41.0015 44.2013 41.4095 44.2013C41.8175 44.2013 42.0623 43.9837 42.0895 43.6029C42.1167 43.1405 42.0895 42.6509 42.0895 42.1341C41.6543 42.1069 41.2191 42.1069 40.7294 42.1069Z" fill="#4777A7"/>
<path id="Vector_4" d="M52.2617 55.0001C53.5946 54.7008 54.6826 54.048 55.281 52.7696C55.4714 52.3888 55.553 51.9808 55.689 51.5728C55.689 52.7152 55.689 53.8576 55.689 55.0001C54.5466 55.0001 53.4042 55.0001 52.2617 55.0001Z" fill="white"/>
<path id="Vector_5" d="M23.3209 39.6316C23.9193 39.6316 24.3817 40.0668 24.4089 40.6652C24.4089 41.2364 23.9465 41.7261 23.3753 41.7261C22.8041 41.7261 22.3145 41.2636 22.2873 40.6924C22.2601 40.1484 22.7225 39.6588 23.3209 39.6316Z" fill="#4777A7"/>
<path id="Vector_6" d="M11.8691 9.95553C12.1139 9.95553 12.3316 9.95553 12.522 9.95553C14.3444 9.95553 16.1669 9.95553 17.9893 9.95553C19.4582 9.98273 20.927 9.95553 22.3142 8.9491C22.0966 11.098 22.5863 13.138 21.9606 15.0965C20.927 18.3334 16.6293 19.6118 13.9908 17.5173C12.6036 16.4021 11.9235 14.9605 11.8963 13.1924C11.8691 12.1588 11.8691 11.0708 11.8691 9.95553Z" fill="white"/>
<path id="Vector_7" d="M33.8197 9.95549C34.3365 9.95549 34.7717 9.95549 35.2341 9.95549C36.8118 9.95549 38.4166 9.92829 39.9943 9.95549C41.4087 9.98269 42.8232 9.92829 44.0472 9.05786C44.1016 9.13946 44.156 9.16667 44.156 9.22107C44.156 10.7171 44.2104 12.2132 44.1288 13.7092C43.9928 16.0213 42.4968 17.7349 40.2119 18.3877C38.2806 18.9317 36.023 18.1157 34.7445 16.3477C34.2005 15.6133 33.8469 14.77 33.8197 13.8724C33.7925 12.6212 33.8197 11.3427 33.8197 9.95549Z" fill="white"/>
<path id="Vector_8" d="M22.2325 2.25765C22.2325 3.29128 22.2869 4.27051 22.2053 5.24974C22.0965 6.60978 20.8997 7.75221 19.458 7.77942C16.9555 7.83382 14.4531 7.80662 11.869 7.80662C11.9234 6.58258 11.6514 5.33134 12.141 4.16171C12.6034 3.01928 13.501 2.31206 14.7251 2.28486C17.2004 2.23045 19.7028 2.25765 22.2325 2.25765Z" fill="white"/>
<path id="Vector_9" d="M44.1022 2.25765C44.1022 3.37288 44.1838 4.43371 44.075 5.46734C43.939 6.74578 42.7421 7.75221 41.3821 7.80661C38.8796 7.86101 36.3772 7.83381 33.7931 7.83381C33.9019 6.36497 33.4395 4.84172 34.4187 3.53609C34.9899 2.77446 35.7515 2.31205 36.7036 2.31205C39.1788 2.23045 41.6269 2.25765 44.1022 2.25765Z" fill="white"/>
<path id="Vector_10" d="M38.8252 23.8006C38.118 22.767 37.4924 21.7878 36.7852 20.7542C38.2268 20.7542 39.5868 20.7542 41.0557 20.7542C40.2941 21.7878 39.5868 22.767 38.8252 23.8006Z" fill="white"/>
<path id="Vector_11" d="M17.1192 23.8006C16.4119 22.7398 15.7591 21.7878 15.0791 20.7542C16.5479 20.7542 17.908 20.7542 19.3768 20.7542C18.6152 21.7878 17.8808 22.7398 17.1192 23.8006Z" fill="white"/>
<path id="Vector_12" d="M38.5258 43.358C39.0154 45.4525 39.8858 46.3229 41.4362 46.3229C42.9867 46.3229 43.8571 45.4525 44.3467 43.3308C47.3932 43.3308 50.4397 43.3308 53.5134 43.3308C53.5134 43.5212 53.5406 43.6844 53.5406 43.8748C53.5406 46.1869 53.5406 48.4718 53.5406 50.7838C53.5406 52.1439 52.8606 52.8511 51.5005 52.8511C44.7819 52.8511 38.0633 52.8511 31.3447 52.8511C30.0119 52.8511 29.3047 52.1439 29.3047 50.8382C29.3047 48.363 29.3047 45.8605 29.3047 43.358C32.3784 43.358 35.4249 43.358 38.5258 43.358Z" fill="white"/>
<path id="Vector_13" d="M53.5405 41.1548C50.4396 41.1548 47.4203 41.1548 44.3738 41.1548C43.8842 39.958 43.8298 39.9308 42.5241 39.9308C41.7081 39.9308 40.9193 39.9308 40.1033 39.9308C39.0152 39.9308 38.7976 40.094 38.4984 41.1276C35.4519 41.1276 32.4326 41.1276 29.3317 41.1276C29.3045 41.0188 29.2773 40.91 29.2773 40.8012C29.2773 39.7404 29.2773 38.7067 29.2773 37.6459C29.2773 36.5307 29.9846 35.8234 31.0998 35.769C31.2086 35.769 31.3174 35.769 31.4262 35.769C38.0632 35.769 44.7002 35.769 51.3644 35.769C51.5548 35.769 51.7452 35.769 51.9628 35.7962C52.806 35.905 53.486 36.5307 53.5132 37.3739C53.5676 38.6251 53.5405 39.8764 53.5405 41.1548Z" fill="white"/>
<path id="Vector_14" d="M44.6459 33.5658C42.4971 33.5658 40.4026 33.5658 38.2265 33.5658C38.2265 32.8858 38.1993 32.2057 38.2537 31.5257C38.2537 31.3897 38.4985 31.1449 38.6073 31.1449C40.4842 31.1177 42.361 31.1177 44.2379 31.1449C44.3739 31.1449 44.6187 31.4169 44.6187 31.5529C44.6731 32.2329 44.6459 32.8858 44.6459 33.5658Z" fill="white"/>
<path id="Vector_15" d="M40.7295 42.1068C41.1919 42.1068 41.6271 42.1068 42.1167 42.1068C42.1167 42.6236 42.1439 43.086 42.1167 43.5757C42.0895 43.9565 41.8447 44.1741 41.4367 44.1741C41.0287 44.1741 40.7839 43.9293 40.7567 43.5485C40.7023 43.1132 40.7295 42.6236 40.7295 42.1068Z" fill="white"/>
</g>
</g>
<defs>
<clipPath id="clip0_583_281">
<rect width="55" height="55" fill="white" transform="translate(0.689453)"/>
</clipPath>
</defs>
</svg>
