<svg width="55" height="55" viewBox="0 0 55 55" fill="none" xmlns="http://www.w3.org/2000/svg">
<g id="Frame" clip-path="url(#clip0_583_257)">
<g id="Group">
<path id="Vector" d="M0 39.8866C0 26.5717 0 13.2859 0 0C18.3333 0 36.6377 0 55 0C55 18.3333 55 36.6667 55 55C53.3755 55 51.722 55 50.0976 55C52.2152 54.1878 52.7373 53.3755 52.7954 51.0549C52.8244 49.7205 52.9984 48.3861 53.1725 47.0517C53.7236 42.9905 54.3328 38.9293 54.913 34.8681C55.029 34.0849 54.5649 33.5628 53.7526 33.5628C52.0411 33.5628 50.3296 33.5628 48.6181 33.5628C47.9219 33.5628 47.4578 33.9979 47.4578 34.6071C47.4578 35.2453 47.9219 35.6804 48.6472 35.6804C49.7785 35.6804 50.9388 35.6804 52.0701 35.6804C52.2442 35.6804 52.4182 35.6804 52.6213 35.6804C52.0121 40.0026 51.403 44.2669 50.7938 48.5021C44.3539 48.5021 37.943 48.5021 31.5032 48.5021C32.1123 44.2089 32.7215 39.9446 33.3307 35.6804C33.5628 35.6804 33.7658 35.6804 33.9689 35.6804C35.5353 35.6804 37.1018 35.6804 38.6973 35.6804C39.4225 35.6804 39.9156 35.2453 39.9156 34.6071C39.9156 33.9689 39.4515 33.5338 38.7263 33.5338C37.972 33.5338 37.1888 33.5047 36.4346 33.5338C34.8681 33.6208 33.3017 33.3017 31.7642 33.7368C31.7062 33.7658 31.5902 33.6788 31.5032 33.6788C30.778 33.4757 30.0527 33.2727 29.3275 33.1276C27.384 32.7505 25.5564 32.1413 23.961 30.894C23.3518 30.4008 23.0037 29.9947 23.0907 29.2115C23.1197 28.8634 23.2068 28.6603 23.5258 28.4283C25.7015 26.8618 26.9778 24.7732 27.3259 22.1044C27.384 21.5533 27.413 21.0021 27.442 20.4509C27.9351 20.4509 28.3703 20.48 28.8054 20.4509C30.2268 20.3639 31.3001 19.6967 31.8803 18.3914C32.4604 17.115 32.2574 15.8966 31.4161 14.7653C31.2421 14.5332 31.1261 14.2431 31.1261 13.9531C31.097 11.4583 31.1261 8.96361 31.097 6.43987C31.068 2.95886 28.2252 0.0870253 24.7442 0.0580169C22.9167 0.0290084 21.0601 0.0580169 19.2326 0.0580169C17.8982 0.0580169 16.5928 0.348101 15.6355 1.24736C14.7073 2.11762 13.692 2.29167 12.5316 2.20464C12.3286 2.17563 12.0965 2.20464 11.8935 2.20464C8.20939 2.20464 5.36656 5.04747 5.36656 8.73154C5.36656 10.5011 5.36656 12.2706 5.36656 14.0401C5.36656 14.2431 5.27954 14.5042 5.1635 14.6493C4.23523 15.8096 4.00316 17.057 4.64135 18.4204C5.27954 19.7838 6.41086 20.4219 7.9193 20.4509C8.32542 20.4509 8.73154 20.4509 9.10865 20.4509C9.10865 20.596 9.13766 20.654 9.13766 20.683C9.13766 23.99 10.472 26.6297 13.1698 28.5443C13.2859 28.6313 13.4019 28.7764 13.4019 28.9214C13.4889 29.7337 13.5179 30.5459 12.5316 30.894C12.4736 30.923 12.4156 30.981 12.3576 31.01C11.3133 31.6482 10.385 32.4895 9.10865 32.6925C8.00633 32.8666 6.90401 33.1857 5.8307 33.4467C3.01688 34.1719 1.16034 35.9415 0.290084 38.7263C0.174051 39.1034 0.0870253 39.5095 0 39.8866ZM44.1799 27.645C45.0501 27.645 45.9204 27.645 46.8196 27.645C48.3861 27.616 49.5174 26.4847 49.5464 24.9473C49.5464 24.077 49.5754 23.2068 49.5464 22.3365C49.5174 21.9014 49.6915 21.6693 50.0105 21.4082C53.7816 18.5654 54.913 13.3729 52.7083 9.22468C50.4747 5.01846 45.5433 3.04589 41.0469 4.64135C37.4789 5.91772 35.2743 8.47046 34.6941 12.1835C34.0849 15.9837 35.4193 19.0876 38.4362 21.4662C38.7263 21.6983 38.8423 21.9014 38.8423 22.2495C38.8133 23.1487 38.8133 24.077 38.8423 24.9763C38.8713 26.4847 40.0026 27.645 41.5401 27.6741C42.4103 27.6741 43.3096 27.645 44.1799 27.645ZM41.9462 45.3402C43.7157 45.3692 45.1951 43.9768 45.2242 42.2073C45.2532 40.4378 43.8608 38.9583 42.1203 38.9003C40.3217 38.8423 38.8423 40.2637 38.8133 42.0622C38.7843 43.8318 40.2057 45.3112 41.9462 45.3402ZM43.6577 35.6804C44.2379 35.6804 44.702 35.2162 44.731 34.6361C44.731 34.0559 44.2669 33.5338 43.6577 33.5338C43.0775 33.5338 42.6134 33.9979 42.5844 34.5781C42.5554 35.1872 43.0485 35.6804 43.6577 35.6804Z" fill="white"/>
<path id="Vector_2" d="M0 39.8866C0.0870253 39.5095 0.174051 39.1323 0.290084 38.7552C1.13133 35.9704 2.98787 34.2009 5.8307 33.4757C6.90401 33.1856 8.00633 32.8955 9.10865 32.7215C10.385 32.5184 11.3133 31.6772 12.3576 31.039C12.4156 31.01 12.4736 30.952 12.5316 30.923C13.5179 30.5749 13.4889 29.7916 13.4019 28.9504C13.4019 28.8053 13.2859 28.6603 13.1698 28.5733C10.443 26.6587 9.10865 24.0189 9.10865 20.712C9.10865 20.654 9.10865 20.596 9.07964 20.4799C8.67352 20.4799 8.29641 20.4799 7.8903 20.4799C6.38186 20.4799 5.25053 19.8127 4.61234 18.4493C3.97416 17.1149 4.20622 15.8386 5.13449 14.6782C5.25053 14.5042 5.33755 14.2721 5.33755 14.0691C5.36656 12.2995 5.33755 10.53 5.33755 8.76051C5.33755 5.07644 8.18038 2.26262 11.8645 2.23361C12.0675 2.23361 12.2996 2.20461 12.5026 2.23361C13.663 2.32064 14.6783 2.1756 15.6065 1.27634C16.5638 0.377074 17.8692 0.0869893 19.2036 0.0869893C21.0311 0.0869893 22.8877 0.0579809 24.7152 0.0869893C28.1962 0.115998 31.039 2.95882 31.068 6.46884C31.097 8.96357 31.068 11.4583 31.097 13.982C31.097 14.2431 31.2131 14.5622 31.3871 14.7943C32.2284 15.9256 32.4314 17.1439 31.8513 18.4203C31.2421 19.7257 30.1978 20.3929 28.7764 20.4799C28.3412 20.5089 27.8771 20.4799 27.413 20.4799C27.384 21.0601 27.355 21.5822 27.2969 22.1334C26.9488 24.8022 25.6725 26.8908 23.4968 28.4572C23.2068 28.6603 23.1197 28.8924 23.0617 29.2405C22.9747 30.0237 23.2938 30.4298 23.932 30.923C25.5274 32.1703 27.355 32.7795 29.2985 33.1566C30.0237 33.3017 30.7489 33.5337 31.4742 33.7078C31.5612 33.7368 31.6482 33.7948 31.7352 33.7658C33.2727 33.3307 34.8681 33.6497 36.4056 33.5627C37.1598 33.5337 37.943 33.5627 38.6973 33.5627C39.4225 33.5627 39.9156 33.9979 39.8866 34.636C39.8866 35.2742 39.3935 35.6803 38.6683 35.7094C37.1018 35.7094 35.5353 35.7094 33.9399 35.7094C33.7368 35.7094 33.5628 35.7094 33.3017 35.7094C32.6925 40.0026 32.0833 44.2378 31.4742 48.5311C37.914 48.5311 44.2959 48.5311 50.7648 48.5311C51.3739 44.2958 51.9831 40.0316 52.5923 35.7094C52.3602 35.7094 52.2152 35.7094 52.0411 35.7094C50.9098 35.7094 49.7495 35.7094 48.6181 35.7094C47.8929 35.7094 47.3998 35.2742 47.4288 34.636C47.4288 34.0269 47.8929 33.5917 48.5891 33.5917C50.3006 33.5917 52.0121 33.5917 53.7236 33.5917C54.5359 33.5917 55 34.1139 54.884 34.8971C54.3038 38.9583 53.6946 43.0195 53.1435 47.0807C52.9694 48.415 52.7954 49.7494 52.7663 51.0838C52.7083 53.4045 52.1862 54.2167 50.0686 55.029C33.3887 55.029 16.6799 55.029 0 55.029C0 49.9525 0 44.905 0 39.8866ZM7.51319 13.4889C9.77584 13.4889 11.9805 13.5179 14.2141 13.4889C16.4188 13.4599 18.3333 12.5896 19.8128 10.9652C20.3639 10.356 20.9151 10.2109 21.6693 10.327C23.6419 10.6171 25.1793 11.5743 26.3107 13.1988C26.3977 13.3148 26.5717 13.4889 26.6878 13.4889C27.442 13.5179 28.1672 13.4889 28.9504 13.4889C28.9504 13.2858 28.9504 13.1408 28.9504 12.9957C28.9504 10.8781 28.9504 8.7315 28.9504 6.61389C28.9504 4.06114 27.0939 2.23361 24.5411 2.20461C22.8877 2.20461 21.2052 2.20461 19.5517 2.20461C18.0723 2.20461 16.8539 2.69775 15.9256 3.85809C15.6355 4.20619 15.2584 4.38024 14.7943 4.38024C13.75 4.38024 12.7347 4.35123 11.6904 4.38024C9.51477 4.40925 7.62922 6.12074 7.51319 8.26737C7.45517 10.0079 7.51319 11.7194 7.51319 13.4889ZM5.88871 52.8243C5.88871 52.5923 5.88871 52.3892 5.88871 52.1861C5.88871 49.9235 5.88871 47.6898 5.88871 45.4272C5.88871 44.5859 6.58492 44.0348 7.31013 44.2958C7.86129 44.4989 8.03534 44.905 8.03534 45.4852C8.03534 47.7479 8.03534 49.9815 8.03534 52.2442C8.03534 52.4182 8.03534 52.6213 8.03534 52.8243C9.74684 52.8243 11.4003 52.8243 13.0538 52.8243C13.0828 52.7373 13.1408 52.6503 13.1698 52.5633C13.9241 49.3723 14.6783 46.1814 15.4325 42.9905C15.4615 42.8454 15.4905 42.7004 15.4615 42.5844C15.2584 41.8011 15.0264 41.0469 14.7943 40.2927C13.5469 40.6698 13.3439 40.5828 12.7347 39.4514C12.4446 38.9293 12.1545 38.3781 11.8935 37.856C11.3133 36.7827 10.7621 35.7094 10.182 34.636C8.90559 34.9551 7.65823 35.2162 6.41087 35.5353C3.74209 36.2025 2.17563 38.2331 2.17563 40.9889C2.17563 44.76 2.17563 48.5311 2.17563 52.3022C2.17563 52.4762 2.17563 52.6793 2.17563 52.8533C3.423 52.8243 4.61234 52.8243 5.88871 52.8243ZM11.2553 15.6355C11.2553 16.2737 11.2553 16.8539 11.2553 17.405C11.2843 18.9715 11.1973 20.5669 11.3713 22.1044C11.7774 25.4114 14.8233 27.9351 18.2173 27.9351C21.6403 27.9351 24.7152 25.4114 25.0633 22.0754C25.2664 20.1608 25.2373 18.1883 25.1503 16.2447C25.0633 14.3591 23.5258 12.7927 21.7273 12.5026C21.5533 12.4736 21.2632 12.5606 21.1181 12.6767C19.0585 14.6782 16.5928 15.6355 13.721 15.6065C12.9378 15.6355 12.1255 15.6355 11.2553 15.6355ZM21.6693 40.2637C21.4372 40.9889 21.2342 41.6851 21.0311 42.3813C21.0021 42.5263 20.9731 42.7004 21.0021 42.8454C21.4372 44.731 21.9014 46.6165 22.3365 48.5021C24.6862 48.5021 26.9778 48.5021 29.2695 48.5021C29.2985 48.386 29.3275 48.27 29.3565 48.183C29.9367 44.2088 30.4879 40.2347 31.068 36.2605C31.1261 35.9414 31.039 35.7674 30.7199 35.6803C29.2405 35.3322 27.7901 34.9551 26.3107 34.578C25.4114 36.2605 24.5411 37.885 23.6999 39.5385C23.1487 40.5828 22.8296 40.6988 21.6693 40.2637ZM31.3291 52.8533C31.5032 52.8533 31.6192 52.8533 31.7352 52.8533C37.5949 52.8533 43.4546 52.8533 49.3143 52.8533C49.4304 52.8533 49.5174 52.8533 49.6334 52.8533C50.1556 52.7953 50.5617 52.4182 50.5907 51.8671C50.6197 51.4899 50.5907 51.1418 50.5907 50.7357C44.1508 50.7357 37.74 50.7357 31.3291 50.7357C31.3291 51.4319 31.3291 52.0991 31.3291 52.8533ZM17.4631 43.7737C16.7379 46.7906 16.0417 49.8074 15.3165 52.8243C16.3898 52.8243 17.4051 52.8243 18.4494 52.8243C18.4494 52.5633 18.4494 52.3312 18.4494 52.0991C18.3913 50.7937 18.8845 49.7784 19.9578 49.0242C20.0738 48.9372 20.1609 48.6181 20.1028 48.4441C19.8418 47.2837 19.5517 46.1524 19.2906 45.0211C18.9715 43.6867 18.9715 43.6577 17.4631 43.7737ZM29.1535 50.7067C28.9214 50.7067 28.7474 50.7067 28.5733 50.7067C26.2816 50.7067 23.961 50.7067 21.6693 50.7067C21.0891 50.7067 20.683 51.1128 20.625 51.664C20.596 52.0411 20.625 52.4472 20.625 52.8243C23.4968 52.8243 26.3397 52.8243 29.1825 52.8243C29.1535 52.0991 29.1535 51.4319 29.1535 50.7067ZM15.4325 29.6756C15.5775 30.1977 15.6355 30.6619 15.8386 31.01C16.5348 32.2573 17.26 33.4757 17.9852 34.7231C18.0723 34.8391 18.1593 34.9551 18.2753 35.1292C19.0876 33.7078 19.8998 32.4024 20.654 31.039C20.8571 30.6619 20.9151 30.2268 21.0891 29.6756C19.1166 30.2558 17.347 30.2268 15.4325 29.6756ZM12.1255 33.7368C12.8797 35.1872 13.634 36.5796 14.3882 38.03C15.2004 37.6239 15.9546 37.2468 16.7089 36.8697C15.8096 35.3322 14.9684 33.8818 14.0981 32.4024C13.4309 32.8665 12.7927 33.2726 12.1255 33.7368ZM19.7257 36.8407C20.538 37.2468 21.2632 37.6239 22.0464 38.001C22.8006 36.5506 23.5549 35.1582 24.3091 33.7078C23.6129 33.2436 23.0037 32.8375 22.3075 32.3734C21.4662 33.8818 20.625 35.3322 19.7257 36.8407ZM19.0295 41.5691C19.1456 41.1629 19.2616 40.7858 19.3776 40.4087C19.4937 40.0316 19.6097 39.6255 19.6967 39.2484C18.1883 38.3781 17.8982 38.4071 16.7089 39.3064C16.9409 40.0606 17.173 40.7858 17.3761 41.54C17.9562 41.5691 18.4784 41.5691 19.0295 41.5691ZM27.3259 18.3333C27.8771 18.3333 28.3122 18.3623 28.7474 18.3333C29.4436 18.3043 29.9657 17.7531 29.9947 17.1149C30.0527 16.4477 29.5886 15.8096 28.9214 15.7225C28.3993 15.6065 27.8481 15.6645 27.3259 15.6645C27.3259 16.5638 27.3259 17.434 27.3259 18.3333ZM9.07964 15.6645C8.55749 15.6645 8.12236 15.6355 7.68724 15.6645C6.99103 15.6935 6.46888 16.2447 6.43987 16.9119C6.38186 17.5791 6.84599 18.2173 7.51319 18.3043C8.03534 18.3623 8.55749 18.3043 9.07964 18.3043C9.07964 17.405 9.07964 16.5348 9.07964 15.6645Z" fill="#444444"/>
<path id="Vector_3" d="M44.1795 27.645C43.2802 27.645 42.381 27.645 41.5107 27.645C39.9733 27.616 38.8419 26.4847 38.8129 24.9472C38.8129 24.048 38.7839 23.1197 38.8129 22.2204C38.8129 21.8433 38.6969 21.6403 38.4068 21.4372C35.3899 19.0585 34.0556 15.9256 34.6647 12.1545C35.2739 8.44143 37.4785 5.88868 41.0176 4.61231C45.4849 3.01685 50.4453 5.01843 52.679 9.19565C54.8836 13.3729 53.7523 18.5364 49.9812 21.3792C49.6621 21.6403 49.488 21.8723 49.5171 22.3075C49.5461 23.1777 49.5461 24.048 49.5171 24.9182C49.488 26.4847 48.3567 27.616 46.7903 27.616C45.949 27.674 45.0788 27.645 44.1795 27.645ZM47.1094 20.0158C47.7475 20.1318 48.2987 20.0738 48.8209 19.6387C50.9675 17.7821 51.9828 15.4905 51.6057 12.6477C51.1415 9.22465 48.4727 6.67191 44.9337 6.23679C41.7718 5.83067 38.5229 7.77423 37.2465 10.8201C35.9701 13.924 36.9274 17.5211 39.5381 19.6097C40.0603 20.0448 40.6115 20.1028 41.2496 19.9868C40.8145 17.6661 40.3794 15.3454 39.9443 13.0248C39.8572 12.5026 39.8863 12.0675 40.3504 11.7484C40.8435 11.4003 41.2787 11.5163 41.7428 11.8354C42.439 12.3286 43.1642 12.7927 43.8894 13.2568C44.1215 13.4019 44.2665 13.4309 44.4986 13.2568C45.1948 12.7637 45.92 12.2995 46.6452 11.8354C47.1094 11.5163 47.5445 11.4003 48.0376 11.7484C48.5018 12.0675 48.5598 12.5026 48.4437 13.0248C47.9506 15.3744 47.5445 17.6951 47.1094 20.0158ZM40.9596 22.2204C40.9596 23.1487 40.9596 24.048 40.9596 24.9182C40.9596 25.2663 41.1916 25.4694 41.5397 25.4694C43.3092 25.4694 45.0788 25.4984 46.8193 25.4404C46.9933 25.4404 47.3414 25.1213 47.3414 24.9182C47.3994 24.019 47.3704 23.1197 47.3704 22.1914C45.2238 22.2204 43.1352 22.2204 40.9596 22.2204ZM45.833 15.1134C45.804 15.0554 45.775 14.9973 45.746 14.9393C44.7017 16.1577 43.6283 16.0126 42.555 14.9393C42.555 14.9973 42.526 15.0554 42.526 15.0844C42.8451 16.7088 43.1352 18.3623 43.4543 20.0158C43.9764 20.0158 44.4406 20.0158 44.9047 20.0158C45.2238 18.3623 45.5139 16.7378 45.833 15.1134Z" fill="#4777A7"/>
<path id="Vector_4" d="M41.9458 45.3402C40.2053 45.3112 38.7839 43.8318 38.8129 42.0623C38.8419 40.2927 40.3214 38.8713 42.1199 38.9003C43.8604 38.9584 45.2818 40.4378 45.2238 42.2073C45.1948 43.9768 43.7154 45.3692 41.9458 45.3402ZM42.0619 41.047C41.4817 41.047 40.9886 41.5111 40.9886 42.0623C40.9596 42.6424 41.4527 43.1646 42.0329 43.1646C42.613 43.1646 43.1352 42.6714 43.1062 42.0913C43.1062 41.5401 42.613 41.076 42.0619 41.047Z" fill="#4777A7"/>
<path id="Vector_5" d="M43.6573 35.6803C43.0771 35.6803 42.584 35.1872 42.584 34.578C42.584 33.9978 43.0771 33.5337 43.6573 33.5337C44.2375 33.5337 44.7306 34.0268 44.7306 34.636C44.7016 35.2162 44.2085 35.6803 43.6573 35.6803Z" fill="#4777A7"/>
<path id="Vector_6" d="M7.51277 13.4889C7.51277 11.7194 7.42575 9.9789 7.54178 8.29641C7.65782 6.12077 9.51436 4.43828 11.719 4.40928C12.7633 4.38027 13.7786 4.38027 14.8229 4.40928C15.287 4.40928 15.6351 4.26423 15.9542 3.88712C16.8825 2.75579 18.1009 2.23364 19.5803 2.23364C21.2338 2.26265 22.9163 2.23364 24.5697 2.23364C27.1225 2.23364 28.979 4.09018 28.979 6.64293C28.979 8.76054 28.979 10.9072 28.979 13.0248C28.979 13.1698 28.979 13.3149 28.979 13.5179C28.1958 13.5179 27.4416 13.5469 26.7164 13.5179C26.5713 13.5179 26.4263 13.3439 26.3393 13.2278C25.2079 11.5744 23.6705 10.6461 21.6979 10.356C20.9727 10.24 20.3925 10.385 19.8414 10.9942C18.3619 12.6477 16.4764 13.4889 14.2427 13.5179C12.0091 13.5179 9.77543 13.4889 7.51277 13.4889Z" fill="white"/>
<path id="Vector_7" d="M5.88857 52.8244C4.6122 52.8244 3.42286 52.8244 2.14648 52.8244C2.14648 52.6213 2.14648 52.4472 2.14648 52.2732C2.14648 48.5021 2.14648 44.731 2.14648 40.9599C2.14648 38.2041 3.71294 36.1735 6.38172 35.5063C7.62908 35.1872 8.87644 34.8971 10.1528 34.6071C10.733 35.6804 11.2841 36.7537 11.8643 37.827C12.1544 38.3491 12.4445 38.9003 12.7056 39.4225C13.3147 40.5828 13.5178 40.6698 14.7652 40.2637C14.9972 41.0179 15.2293 41.8011 15.4323 42.5554C15.4614 42.6714 15.4323 42.8455 15.4033 42.9615C14.6491 46.1524 13.8949 49.3433 13.1407 52.5343C13.1117 52.6213 13.0827 52.7083 13.0246 52.7953C11.3712 52.7953 9.7467 52.7953 8.00619 52.7953C8.00619 52.5923 8.00619 52.4182 8.00619 52.2152C8.00619 49.9525 8.00619 47.7189 8.00619 45.4562C8.00619 44.9051 7.80313 44.4699 7.28098 44.2669C6.55577 44.0058 5.88857 44.5569 5.85956 45.3982C5.85956 47.6609 5.85956 49.8945 5.85956 52.1572C5.88857 52.3892 5.88857 52.5923 5.88857 52.8244Z" fill="white"/>
<path id="Vector_8" d="M11.2553 15.6356C12.1256 15.6356 12.9088 15.6356 13.721 15.6356C16.5929 15.6646 19.0586 14.7073 21.1182 12.7057C21.2632 12.5607 21.5243 12.5027 21.7273 12.5317C23.5259 12.8218 25.0633 14.3882 25.1503 16.2738C25.2374 18.2173 25.2664 20.1899 25.0633 22.1045C24.6862 25.4404 21.6113 27.9642 18.2173 27.9642C14.8233 27.9642 11.8065 25.4404 11.3713 22.1335C11.1683 20.596 11.2843 19.0005 11.2553 17.4341C11.2553 16.8539 11.2553 16.3028 11.2553 15.6356Z" fill="white"/>
<path id="Vector_9" d="M21.6692 40.2637C22.8295 40.6698 23.1196 40.5537 23.6707 39.5384C24.541 37.914 25.4112 36.2605 26.2815 34.578C27.7609 34.9551 29.2404 35.3032 30.6908 35.6803C31.0099 35.7673 31.0969 35.9414 31.0389 36.2605C30.4587 40.2346 29.9076 44.2088 29.3274 48.183C29.2984 48.299 29.2694 48.386 29.2404 48.5021C26.9197 48.5021 24.628 48.5021 22.3073 48.5021C21.8722 46.6165 21.4081 44.731 20.973 42.8454C20.9439 42.7004 20.973 42.5263 21.002 42.3813C21.234 41.6851 21.4661 41.0179 21.6692 40.2637Z" fill="white"/>
<path id="Vector_10" d="M31.3291 52.8533C31.3291 52.0991 31.3291 51.4319 31.3291 50.7357C37.74 50.7357 44.1508 50.7357 50.5907 50.7357C50.5907 51.1128 50.6197 51.4899 50.5907 51.867C50.5617 52.3892 50.1556 52.7953 49.6334 52.8533C49.5174 52.8533 49.4304 52.8533 49.3143 52.8533C43.4546 52.8533 37.5949 52.8533 31.7352 52.8533C31.6192 52.8533 31.5032 52.8533 31.3291 52.8533Z" fill="white"/>
<path id="Vector_11" d="M17.463 43.7738C19.0005 43.6867 18.9715 43.6867 19.2906 45.0501C19.5516 46.1815 19.8417 47.3418 20.1028 48.4731C20.1318 48.6472 20.0738 48.9663 19.9578 49.0533C18.8844 49.8075 18.3913 50.8228 18.4493 52.1282C18.4493 52.3603 18.4493 52.5923 18.4493 52.8534C17.405 52.8534 16.3897 52.8534 15.3164 52.8534C16.0416 49.7785 16.7378 46.7906 17.463 43.7738Z" fill="white"/>
<path id="Vector_12" d="M29.1534 50.7068C29.1534 51.432 29.1534 52.0992 29.1534 52.8244C26.3106 52.8244 23.4967 52.8244 20.5959 52.8244C20.5959 52.4473 20.5669 52.0412 20.5959 51.6641C20.6539 51.1129 21.06 50.7358 21.6402 50.7068C23.9319 50.7068 26.2525 50.7068 28.5442 50.7068C28.7473 50.7068 28.9213 50.7068 29.1534 50.7068Z" fill="white"/>
<path id="Vector_13" d="M15.4326 29.6757C17.3762 30.2268 19.1167 30.2268 21.0603 29.6757C20.8862 30.2268 20.8282 30.6619 20.6251 31.0391C19.8709 32.4025 19.0877 33.7078 18.2464 35.1292C18.1304 34.9552 18.0434 34.8392 17.9564 34.7231C17.2311 33.5048 16.5059 32.2864 15.8097 31.01C15.6357 30.6619 15.5777 30.2268 15.4326 29.6757Z" fill="white"/>
<path id="Vector_14" d="M12.126 33.7369C12.7932 33.3017 13.4314 32.8666 14.1276 32.4025C14.9978 33.8819 15.8391 35.3323 16.7383 36.8698C15.9841 37.2469 15.2299 37.624 14.4176 38.0301C13.6344 36.5797 12.8802 35.1873 12.126 33.7369Z" fill="white"/>
<path id="Vector_15" d="M19.7256 36.8407C20.5958 35.3323 21.4661 33.8819 22.3363 32.3734C23.0035 32.8375 23.6417 33.2437 24.3379 33.7078C23.5837 35.1292 22.8295 36.5506 22.0753 38.0011C21.263 37.6239 20.5378 37.2468 19.7256 36.8407Z" fill="white"/>
<path id="Vector_16" d="M19.0299 41.5691C18.4788 41.5691 17.9566 41.5691 17.4055 41.5691C17.1734 40.8149 16.9413 40.0606 16.7383 39.3354C17.9276 38.4362 18.2177 38.4072 19.7262 39.2774C19.6101 39.6545 19.5231 40.0316 19.4071 40.4378C19.291 40.7859 19.175 41.163 19.0299 41.5691Z" fill="white"/>
<path id="Vector_17" d="M27.3262 18.3333C27.3262 17.434 27.3262 16.5928 27.3262 15.6935C27.8193 15.6935 28.3995 15.6355 28.9506 15.7225C29.6178 15.8095 30.053 16.4477 30.024 17.1149C29.9659 17.7821 29.4438 18.3043 28.7766 18.3333C28.3125 18.3333 27.8773 18.3333 27.3262 18.3333Z" fill="white"/>
<path id="Vector_18" d="M9.07923 15.6645C9.07923 16.5638 9.07923 17.405 9.07923 18.3043C8.55708 18.3043 8.03492 18.3623 7.51277 18.3043C6.84558 18.2172 6.38144 17.5791 6.43946 16.9119C6.49748 16.2447 7.01963 15.7225 7.68682 15.6645C8.12195 15.6355 8.58609 15.6645 9.07923 15.6645Z" fill="white"/>
<path id="Vector_19" d="M47.1096 20.0159C47.5447 17.6952 47.9798 15.3745 48.4149 13.0539C48.502 12.5317 48.473 12.0966 48.0088 11.7775C47.5157 11.4294 47.0806 11.5744 46.6164 11.8645C45.9202 12.3577 45.195 12.7928 44.4698 13.2859C44.2377 13.46 44.0927 13.431 43.8606 13.2859C43.1644 12.7928 42.4392 12.3286 41.714 11.8645C41.2499 11.5454 40.8147 11.4294 40.3216 11.7775C39.8575 12.0966 39.8285 12.5317 39.9155 13.0539C40.3506 15.3745 40.7857 17.6662 41.2209 20.0159C40.5537 20.1319 40.0315 20.0449 39.5094 19.6388C36.8986 17.5502 35.9123 13.9531 37.2177 10.8492C38.4941 7.80333 41.743 5.85976 44.9049 6.26588C48.415 6.70101 51.1127 9.25375 51.5769 12.6767C51.954 15.5196 50.9677 17.8112 48.7921 19.6678C48.2989 20.0739 47.7478 20.1319 47.1096 20.0159Z" fill="white"/>
<path id="Vector_20" d="M40.96 22.2205C43.1356 22.2205 45.2242 22.2205 47.3998 22.2205C47.3998 23.1487 47.4288 24.048 47.3708 24.9473C47.3708 25.1503 47.0227 25.4694 46.8487 25.4694C45.0792 25.4984 43.3096 25.4984 41.5691 25.4984C41.221 25.4984 40.989 25.2954 40.989 24.9473C40.96 24.048 40.96 23.1777 40.96 22.2205Z" fill="white"/>
<path id="Vector_21" d="M45.8333 15.1134C45.5142 16.7379 45.2242 18.3623 44.9051 20.0158C44.4409 20.0158 43.9478 20.0158 43.4546 20.0158C43.1355 18.3623 42.8455 16.7379 42.5264 15.0844C42.5264 15.0264 42.5554 14.9683 42.5554 14.9393C43.6287 16.0126 44.673 16.1577 45.7463 14.9393C45.7753 14.9973 45.8043 15.0554 45.8333 15.1134Z" fill="white"/>
<path id="Vector_22" d="M42.0618 41.047C42.642 41.047 43.1061 41.5401 43.1061 42.0913C43.1061 42.6715 42.613 43.1936 42.0328 43.1646C41.4527 43.1646 40.9595 42.6425 40.9885 42.0623C40.9885 41.5111 41.4817 41.047 42.0618 41.047Z" fill="white"/>
</g>
</g>
<defs>
<clipPath id="clip0_583_257">
<rect width="55" height="55" fill="white"/>
</clipPath>
</defs>
</svg>
