<svg width="56" height="55" viewBox="0 0 56 55" fill="none" xmlns="http://www.w3.org/2000/svg">
<g id="Frame" clip-path="url(#clip0_583_298)">
<g id="Group">
<path id="Vector" d="M3.15339 55C2.22856 55 1.30373 55 0.378906 55C0.378906 36.6667 0.378906 18.3333 0.378906 0C18.7122 0 37.0456 0 55.3789 0C55.3789 6.8274 55.3789 13.6548 55.3789 20.4822C55.1341 19.4486 54.5629 18.6597 53.6381 18.0885C53.366 17.9253 53.2028 17.4901 53.1756 17.1365C52.958 15.1508 51.9788 14.1444 49.9931 13.9812C49.5035 13.954 49.1771 13.7364 48.9051 13.3284C47.8987 11.7779 46.321 11.3699 44.689 12.186C44.2266 12.4036 43.8186 12.4308 43.3834 12.186C41.6969 11.3427 40.1465 11.7507 39.14 13.3012C38.868 13.7364 38.5144 13.9268 37.9976 13.954C36.0663 14.1172 35.0599 15.1508 34.8967 17.0821C34.8695 17.5717 34.6519 17.8981 34.2711 18.1973C33.8359 18.5509 33.3463 18.9318 33.1015 19.3942C32.8022 19.9382 32.7206 20.6182 32.5574 21.2982C32.4214 21.2982 32.2038 21.2982 31.9862 21.2982C26.1381 21.2982 20.2899 21.2982 14.4689 21.2982C13.4897 21.2982 12.9729 21.6518 12.9729 22.359C12.9457 23.0935 13.4625 23.4471 14.4961 23.4471C20.5347 23.4471 26.5733 23.4471 32.6118 23.4471C32.8022 23.4471 33.0199 23.4471 33.2919 23.4471C32.6934 24.4535 32.5574 25.4055 32.9111 26.4392C32.639 26.4392 32.4486 26.4392 32.231 26.4392C26.3285 26.4392 20.3987 26.4392 14.4961 26.4392C13.4625 26.4392 12.9729 26.7928 12.9729 27.5272C12.9729 28.2344 13.4897 28.588 14.4689 28.588C21.0515 28.588 27.6069 28.588 34.1895 28.588C34.4071 28.588 34.6247 28.588 34.8151 28.588C34.8423 28.8056 34.9239 28.9416 34.8967 29.1048C34.8423 30.7913 36.3112 32.2873 38.1336 32.2601C38.4328 32.2601 38.7864 32.5049 39.004 32.7498C39.412 33.1578 39.5752 33.6746 39.5208 34.3002C39.4664 35.089 39.4936 35.905 39.4936 36.7211C39.4936 38.9243 39.4936 41.1276 39.4936 43.3037C39.4936 43.8205 39.684 44.2285 40.1465 44.4189C40.6361 44.6365 41.0441 44.4733 41.4249 44.1197C41.7513 43.7933 42.0777 43.4669 42.4041 43.1405C42.9209 42.6236 43.465 42.0796 44.0634 41.5084C44.2266 41.726 44.3354 41.8892 44.4714 42.0252C45.1786 42.7324 45.8858 43.4397 46.593 44.1469C46.9467 44.5005 47.3819 44.6365 47.8715 44.4189C48.3339 44.2285 48.5243 43.8205 48.4971 43.3309C48.4971 43.1949 48.4971 43.0317 48.4971 42.8956C48.4971 39.8764 48.4971 36.8571 48.4971 33.8378C48.4971 33.0762 49.2043 32.2329 49.9115 32.2329C51.6796 32.2601 53.1484 30.7913 53.1484 29.0776C53.1484 28.7512 53.366 28.2888 53.6109 28.1256C54.5085 27.5544 55.0525 26.7928 55.3517 25.7864C55.3517 35.497 55.3517 45.2349 55.3517 54.9456C52.5228 54.9456 49.6939 54.9456 46.8923 54.9456C46.9467 54.9184 47.0011 54.864 47.0827 54.864C48.7691 54.3472 49.5579 53.2592 49.5851 51.4911C49.5851 50.6207 49.5851 49.7775 49.5851 48.907C49.5851 48.1726 49.1499 47.683 48.5515 47.6558C47.9259 47.6286 47.4635 48.1454 47.4635 48.907C47.4635 49.723 47.4635 50.5119 47.4635 51.3279C47.4635 52.4431 47.1099 52.7967 45.9946 52.7967C32.0406 52.7967 18.0866 52.7967 4.13262 52.7967C3.01738 52.7967 2.66377 52.4431 2.66377 51.3279C2.66377 35.4426 2.66377 19.5574 2.66377 3.67211C2.66377 2.55687 3.01738 2.20326 4.13262 2.20326C18.0866 2.20326 32.0406 2.20326 45.9946 2.20326C47.1099 2.20326 47.4635 2.55687 47.4635 3.67211C47.4635 5.35856 47.4635 7.045 47.4635 8.70425C47.4635 9.19387 47.5995 9.62908 48.0619 9.87389C48.7963 10.2819 49.6123 9.73788 49.6123 8.81306C49.6395 7.07221 49.6123 5.35856 49.6123 3.61771C49.6123 1.38724 48.2795 0.0544016 46.049 0.0544016C32.0678 0.0544016 18.0594 0.0544016 4.07821 0.0544016C1.82055 0.108803 0.487709 1.41444 0.487709 3.67211C0.487709 6.8546 0.487709 10.0371 0.487709 13.2196C0.487709 25.9496 0.487709 38.6795 0.487709 51.3823C0.487709 52.1439 0.596513 52.8783 1.00452 53.5312C1.52134 54.3472 2.31016 54.728 3.15339 55ZM42.2953 7.39862C42.2953 7.88823 42.2953 8.35064 42.2953 8.78586C42.2953 9.65628 42.7033 10.1731 43.3834 10.1459C44.0634 10.1459 44.4442 9.62908 44.4442 8.75865C44.4442 8.07864 44.4442 7.39862 44.4442 6.7186C44.4442 5.54896 44.1178 5.22255 42.9209 5.22255C30.9798 5.22255 19.0658 5.22255 7.1247 5.22255C5.95507 5.22255 5.62866 5.54896 5.62866 6.7186C5.62866 13.8996 5.62866 21.0806 5.62866 28.2616C5.62866 28.452 5.62866 28.6152 5.65586 28.8056C5.73746 29.3769 6.17268 29.7577 6.68949 29.7849C7.20631 29.7849 7.66872 29.4041 7.75032 28.8328C7.77752 28.6424 7.77752 28.452 7.77752 28.2344C7.77752 21.4886 7.77752 14.77 7.77752 8.02423C7.77752 7.80663 7.77752 7.61622 7.77752 7.37141C19.3107 7.39862 30.7622 7.39862 42.2953 7.39862ZM7.77752 47.683C7.77752 44.6637 7.77752 41.6988 7.77752 38.7339C7.77752 38.1083 7.80472 37.4827 7.77752 36.8571C7.75032 36.0955 7.1247 35.633 6.41748 35.7962C5.90067 35.9322 5.62866 36.3675 5.62866 37.1019C5.62866 40.774 5.62866 44.4733 5.62866 48.1454C5.62866 49.587 5.90067 49.8591 7.31511 49.8591C16.9442 49.8591 26.5733 49.8591 36.2023 49.8591C38.5144 49.8591 40.8537 49.8591 43.1658 49.8591C44.0362 49.8591 44.4442 49.451 44.4442 48.5806C44.4442 47.9278 44.4442 47.2478 44.4442 46.595C44.4442 45.8605 44.009 45.3709 43.3834 45.3709C42.7577 45.3709 42.3225 45.8605 42.2953 46.595C42.2953 46.9758 42.2953 47.3294 42.2953 47.7102C30.7622 47.683 19.3107 47.683 7.77752 47.683ZM26.8725 31.6345C24.8868 31.6345 22.9012 31.6345 20.9427 31.6345C20.1267 31.6345 19.6643 32.0425 19.6643 32.6954C19.6643 33.3482 20.0995 33.7562 20.8611 33.7834C22.1939 33.7834 23.4996 33.7834 24.8324 33.7834C27.4437 33.7834 30.0822 33.7834 32.6934 33.7834C33.2375 33.7834 33.6999 33.6474 33.9447 33.1306C34.2983 32.3689 33.7271 31.6345 32.775 31.6345C30.7894 31.6073 28.8309 31.6345 26.8725 31.6345ZM27.2533 40.2028C27.6613 40.6652 27.9877 41.0732 28.3413 41.4268C29.4566 42.542 30.6534 42.542 31.7686 41.454C32.3398 40.8828 32.9111 40.3116 33.4823 39.7404C34.1079 39.1147 34.1895 38.4891 33.6999 37.9995C33.2375 37.5099 32.5846 37.5915 31.959 38.2171C31.5782 38.5707 31.2246 38.9515 30.871 39.3051C30.6262 39.5772 30.3814 39.8492 30.055 40.23C29.511 39.6315 29.1029 39.1147 28.6405 38.7067C27.8245 37.9723 26.6821 37.9723 25.866 38.6795C25.5396 38.9787 25.2132 39.2779 24.914 39.6316C24.4788 40.1212 24.4788 40.7196 24.8868 41.1276C25.2948 41.5628 25.9204 41.59 26.4101 41.1276C26.6821 40.8828 26.9269 40.5836 27.2533 40.2028ZM19.3923 14.906C20.2083 14.906 21.0243 14.906 21.8675 14.906C22.602 14.906 23.0916 14.4708 23.1188 13.8452C23.1188 13.2196 22.6292 12.7572 21.9219 12.7572C20.2899 12.7572 18.6306 12.7572 16.9986 12.7572C16.2642 12.7572 15.7746 13.2196 15.8018 13.8452C15.8018 14.4708 16.2914 14.906 17.0258 14.906C17.7874 14.906 18.6034 14.906 19.3923 14.906ZM12.8097 12.7572C12.2385 12.7572 11.7488 13.274 11.776 13.8452C11.776 14.4164 12.2929 14.906 12.8641 14.8788C13.4353 14.8788 13.9249 14.362 13.8977 13.7908C13.8705 13.2468 13.3537 12.7572 12.8097 12.7572ZM6.68949 31.6345C6.14547 31.6345 5.62866 32.1513 5.62866 32.6954C5.62866 33.2394 6.14547 33.7562 6.68949 33.7562C7.23351 33.7562 7.75032 33.2394 7.75032 32.6954C7.77752 32.1513 7.26071 31.6345 6.68949 31.6345Z" fill="white"/>
<path id="Vector_2" d="M3.15298 55C2.28256 54.728 1.49373 54.3199 1.00412 53.5311C0.596108 52.8783 0.487305 52.1439 0.487305 51.3823C0.487305 38.6523 0.487305 25.9223 0.487305 13.2195C0.487305 10.0371 0.487305 6.85456 0.487305 3.67207C0.487305 1.4416 1.82014 0.108765 4.05061 0.108765C18.0318 0.108765 32.0402 0.108765 46.0214 0.108765C48.2791 0.108765 49.5847 1.4416 49.5847 3.67207C49.5847 5.41292 49.5847 7.12657 49.5847 8.86742C49.5847 9.79225 48.7687 10.3363 48.0343 9.92825C47.5719 9.68344 47.4359 9.24823 47.4359 8.75862C47.4359 7.07217 47.4359 5.38572 47.4359 3.72647C47.4359 2.61124 47.0823 2.25763 45.967 2.25763C32.013 2.25763 18.059 2.25763 4.10501 2.25763C2.98978 2.25763 2.63617 2.61124 2.63617 3.72647C2.63617 19.6117 2.63617 35.497 2.63617 51.3823C2.63617 52.4975 2.98978 52.8511 4.10501 52.8511C18.059 52.8511 32.013 52.8511 45.967 52.8511C47.1095 52.8511 47.4359 52.4975 47.4359 51.3823C47.4359 50.5662 47.4359 49.7774 47.4359 48.9614C47.4359 48.1998 47.8983 47.6829 48.5239 47.7101C49.1495 47.7374 49.5575 48.227 49.5575 48.9614C49.5575 49.8318 49.5575 50.675 49.5575 51.5455C49.5575 53.3135 48.7415 54.4015 47.0551 54.9184C47.0007 54.9456 46.9191 54.9728 46.8647 55C32.3394 55 17.7598 55 3.15298 55Z" fill="#444444"/>
<path id="Vector_3" d="M55.3788 25.8408C55.1068 26.8472 54.5356 27.6088 53.638 28.1801C53.366 28.3433 53.1756 28.8057 53.1756 29.1321C53.1756 30.8729 51.7339 32.3146 49.9387 32.2874C49.2314 32.2874 48.5242 33.1306 48.5242 33.8922C48.5242 36.9115 48.5242 39.9308 48.5242 42.9501C48.5242 43.0861 48.5242 43.2493 48.5242 43.3853C48.5242 43.8749 48.361 44.2829 47.8986 44.4733C47.4362 44.6909 47.001 44.5549 46.6202 44.2013C45.913 43.4941 45.2057 42.7869 44.4985 42.0797C44.3625 41.9437 44.2537 41.7804 44.0905 41.5628C43.4921 42.1613 42.9753 42.6781 42.4313 43.1949C42.1048 43.5213 41.7784 43.8477 41.452 44.1741C41.0984 44.5277 40.6632 44.6909 40.1736 44.4733C39.684 44.2557 39.5208 43.8477 39.5208 43.3581C39.5208 41.1548 39.5208 38.9516 39.5208 36.7755C39.5208 35.9595 39.4664 35.1707 39.548 34.3546C39.6024 33.729 39.412 33.2122 39.0312 32.8042C38.8136 32.5594 38.4327 32.3146 38.1607 32.3146C36.3383 32.3418 34.8694 30.8457 34.9238 29.1593C34.9238 28.9961 34.8694 28.8329 34.8422 28.6425C34.6246 28.6425 34.407 28.6425 34.2166 28.6425C27.634 28.6425 21.0786 28.6425 14.496 28.6425C13.5168 28.6425 13 28.2889 13 27.5816C13 26.8472 13.4896 26.4936 14.5232 26.4936C20.4258 26.4936 26.3556 26.4936 32.2582 26.4936C32.4758 26.4936 32.6934 26.4936 32.9382 26.4936C32.5574 25.4328 32.7206 24.4807 33.319 23.5015C33.047 23.5015 32.8294 23.5015 32.639 23.5015C26.6004 23.5015 20.5618 23.5015 14.5232 23.5015C13.5168 23.5015 13 23.1207 13 22.4135C13.0272 21.7063 13.5168 21.3527 14.496 21.3527C20.3442 21.3527 26.1924 21.3527 32.0134 21.3527C32.231 21.3527 32.4486 21.3527 32.5846 21.3527C32.775 20.6726 32.8566 19.9926 33.1286 19.4486C33.3734 18.959 33.863 18.5782 34.2982 18.2518C34.679 17.9526 34.8966 17.6261 34.9238 17.1365C35.087 15.1781 36.0935 14.1444 38.0247 14.0084C38.5415 13.954 38.868 13.7636 39.1672 13.3556C40.1736 11.8052 41.724 11.3972 43.4105 12.2404C43.8729 12.458 44.2809 12.458 44.7161 12.2404C46.3754 11.4244 47.9258 11.8324 48.9322 13.3828C49.2043 13.7908 49.5307 13.9812 50.0203 14.0356C52.0059 14.1988 52.9852 15.2053 53.2028 17.1909C53.23 17.5173 53.4204 17.9798 53.6652 18.143C54.59 18.7142 55.1612 19.503 55.406 20.5366C55.406 20.863 55.406 21.1894 55.406 21.4887C55.2156 21.9239 54.998 22.3591 54.862 22.7943C54.7804 23.0119 54.7804 23.2839 54.862 23.5015C54.998 23.9367 55.2428 24.3719 55.4332 24.8072C55.3788 25.1064 55.3788 25.4872 55.3788 25.8408ZM41.6696 13.818C41.4248 14.0356 41.0712 14.226 40.908 14.5253C40.2552 15.5317 39.3848 16.0757 38.1607 16.1029C37.3719 16.1301 37.0727 16.4565 37.0183 17.2181C36.9639 18.4422 36.4471 19.367 35.3862 19.9926C34.7606 20.3734 34.6246 20.8358 34.9782 21.4887C35.5495 22.5767 35.5495 23.6375 34.9782 24.6984C34.6246 25.3784 34.7334 25.8136 35.3591 26.1944C36.3927 26.82 36.8823 27.7448 36.9911 28.9417C37.0455 29.8393 37.3175 30.0569 38.2423 30.1113C39.3032 30.1657 40.1464 30.6281 40.7448 31.5257C41.316 32.3962 41.6424 32.4778 42.5673 32.0154C43.5193 31.5529 44.4713 31.5529 45.3961 32.0154C46.3482 32.4778 46.6474 32.3962 47.2186 31.5529C47.817 30.6553 48.6602 30.1929 49.7211 30.1113C50.7003 30.0569 50.9179 29.8393 50.9995 28.8601C51.0811 27.7176 51.5707 26.8744 52.5499 26.2488C53.2572 25.7864 53.366 25.3784 52.9852 24.6167C52.4411 23.5831 52.4411 22.5767 52.9852 21.5431C53.3932 20.7814 53.2572 20.3734 52.5499 19.911C51.5707 19.3126 51.0811 18.4422 50.9995 17.2997C50.9179 16.3477 50.6731 16.0757 49.7211 16.0485C48.633 15.9941 47.7898 15.4773 47.1914 14.5797C46.7018 13.818 46.2938 13.7092 45.5049 14.1172C44.4985 14.6341 43.4921 14.6341 42.4857 14.1172C42.2681 14.0356 42.0232 13.954 41.6696 13.818ZM46.3482 40.9372C46.3482 38.7068 46.3482 36.6123 46.3482 34.6266C45.6681 34.3818 45.0425 34.137 44.4169 33.9466C44.1721 33.865 43.8729 33.865 43.6553 33.9466C43.0025 34.137 42.3769 34.409 41.6968 34.6538C41.6968 36.6667 41.6968 38.734 41.6968 40.9916C42.2136 40.4476 42.6217 39.9852 43.0297 39.5772C43.7369 38.87 44.2809 38.87 44.9881 39.6044C45.4233 39.9852 45.8314 40.4204 46.3482 40.9372Z" fill="#444444"/>
<path id="Vector_4" d="M55.3786 24.7527C55.1882 24.3175 54.9706 23.9095 54.8074 23.4471C54.7258 23.2295 54.753 22.9574 54.8074 22.7398C54.9434 22.3046 55.161 21.8694 55.3514 21.4342C55.3786 22.5494 55.3786 23.6647 55.3786 24.7527Z" fill="white"/>
<path id="Vector_5" d="M42.2956 7.39862C30.7624 7.39862 19.3109 7.39862 7.77777 7.39862C7.77777 7.61623 7.77777 7.83383 7.77777 8.05144C7.77777 14.7972 7.77777 21.5158 7.77777 28.2616C7.77777 28.452 7.77777 28.6696 7.75057 28.86C7.66897 29.4313 7.20655 29.8121 6.68974 29.8121C6.17292 29.8121 5.71051 29.4041 5.65611 28.8328C5.62891 28.6696 5.62891 28.4792 5.62891 28.2888C5.62891 21.1078 5.62891 13.9268 5.62891 6.7458C5.62891 5.57617 5.95532 5.24976 7.12495 5.24976C19.0661 5.24976 30.98 5.24976 42.9212 5.24976C44.0908 5.24976 44.4444 5.57617 44.4444 6.7458C44.4444 7.42582 44.4444 8.10584 44.4444 8.78586C44.4444 9.65628 44.0636 10.1731 43.3836 10.1731C42.7036 10.1731 42.2956 9.65628 42.2956 8.81306C42.2956 8.35065 42.2956 7.91543 42.2956 7.39862Z" fill="#4777A7"/>
<path id="Vector_6" d="M7.77777 47.683C19.3109 47.683 30.7624 47.683 42.2956 47.683C42.2956 47.3022 42.2956 46.9485 42.2956 46.5677C42.3228 45.8333 42.758 45.3437 43.3836 45.3437C44.0092 45.3437 44.4444 45.8333 44.4444 46.5677C44.4444 47.2205 44.4444 47.9006 44.4444 48.5534C44.4444 49.4238 44.0364 49.8318 43.166 49.8318C40.8539 49.8318 38.5147 49.8318 36.2026 49.8318C26.5735 49.8318 16.9444 49.8318 7.31536 49.8318C5.90091 49.8318 5.62891 49.5598 5.62891 48.1182C5.62891 44.4461 5.62891 40.7468 5.62891 37.0747C5.62891 36.3402 5.90091 35.905 6.41773 35.769C7.12495 35.6058 7.72337 36.041 7.77777 36.8298C7.80497 37.4555 7.77777 38.0811 7.77777 38.7067C7.77777 41.6988 7.77777 44.6637 7.77777 47.683Z" fill="#4777A7"/>
<path id="Vector_7" d="M26.8721 31.6345C28.8306 31.6345 30.789 31.6345 32.7475 31.6345C33.6995 31.6345 34.2707 32.3689 33.9171 33.1306C33.6723 33.6474 33.2099 33.7834 32.6659 33.7834C30.0546 33.7834 27.4161 33.7834 24.8049 33.7834C23.472 33.7834 22.1664 33.7834 20.8336 33.7834C20.0719 33.7834 19.6367 33.3482 19.6367 32.6954C19.6367 32.0425 20.0991 31.6345 20.9152 31.6345C22.9008 31.6345 24.8865 31.6345 26.8721 31.6345Z" fill="#4777A7"/>
<path id="Vector_8" d="M27.2533 40.2027C26.8996 40.5835 26.682 40.8827 26.41 41.1548C25.9204 41.6172 25.2948 41.59 24.8868 41.1548C24.506 40.7467 24.506 40.1211 24.914 39.6587C25.2132 39.3323 25.5396 39.0059 25.866 38.7067C26.7092 37.9995 27.8245 37.9723 28.6405 38.7339C29.1029 39.1691 29.5109 39.6859 30.0549 40.2571C30.3813 39.8763 30.6262 39.6043 30.871 39.3323C31.2246 38.9515 31.6054 38.5979 31.959 38.2443C32.5846 37.6187 33.2102 37.5643 33.6998 38.0267C34.1895 38.5163 34.1079 39.1147 33.4822 39.7675C32.911 40.3387 32.3398 40.9099 31.7686 41.4812C30.6534 42.5964 29.4565 42.5692 28.3413 41.454C27.9877 41.046 27.6613 40.6651 27.2533 40.2027Z" fill="#4777A7"/>
<path id="Vector_9" d="M19.392 14.9061C18.576 14.9061 17.7871 14.9061 16.9711 14.9061C16.2367 14.9061 15.7471 14.4709 15.7471 13.8452C15.7471 13.2196 16.2095 12.7572 16.9439 12.7572C18.576 12.7572 20.2352 12.7572 21.8672 12.7572C22.6017 12.7572 23.0913 13.2196 23.0641 13.8452C23.0641 14.4709 22.5745 14.8789 21.8128 14.9061C21.0512 14.9061 20.208 14.9061 19.392 14.9061Z" fill="#4777A7"/>
<path id="Vector_10" d="M12.8101 12.7572C13.3541 12.7572 13.8709 13.2468 13.8981 13.7908C13.8981 14.3348 13.4085 14.8517 12.8645 14.8789C12.3205 14.8789 11.8037 14.3892 11.7765 13.8452C11.7493 13.274 12.2389 12.7572 12.8101 12.7572Z" fill="#4777A7"/>
<path id="Vector_11" d="M6.68974 31.6345C7.23375 31.6345 7.75057 32.1513 7.75057 32.6954C7.75057 33.2394 7.23375 33.7562 6.68974 33.7562C6.14572 33.7562 5.62891 33.2394 5.62891 32.6954C5.62891 32.1513 6.14572 31.6345 6.68974 31.6345Z" fill="#4777A7"/>
<path id="Vector_12" d="M41.6696 13.818C42.0232 13.954 42.268 14.0356 42.4856 14.1444C43.492 14.6612 44.4985 14.6884 45.5049 14.1444C46.3209 13.7364 46.7017 13.8452 47.1913 14.6068C47.7898 15.5316 48.6058 16.0213 49.721 16.0757C50.673 16.1301 50.945 16.3749 50.9995 17.3269C51.0811 18.4693 51.5707 19.3126 52.5499 19.9382C53.2571 20.4006 53.3659 20.8086 52.9851 21.5702C52.4411 22.6038 52.4411 23.6103 52.9851 24.6439C53.3931 25.4055 53.2843 25.8135 52.5499 26.276C51.5979 26.8744 51.0811 27.7448 50.9995 28.8872C50.9178 29.8665 50.7002 30.0841 49.721 30.1385C48.6602 30.2201 47.817 30.6825 47.2185 31.5801C46.6473 32.4505 46.3481 32.5049 45.3961 32.0425C44.4441 31.5801 43.492 31.5801 42.5672 32.0425C41.6424 32.5049 41.3432 32.4233 40.7447 31.5529C40.1463 30.6553 39.3031 30.1929 38.2423 30.1385C37.3175 30.0841 37.0454 29.8665 36.991 28.9688C36.9094 27.772 36.3926 26.8744 35.359 26.2216C34.7334 25.8135 34.6246 25.3783 34.9782 24.7255C35.5494 23.6375 35.5494 22.5766 34.9782 21.5158C34.6246 20.8358 34.7334 20.4006 35.3862 20.0198C36.4198 19.367 36.9638 18.4421 37.0182 17.2453C37.0454 16.4565 37.3719 16.1573 38.1607 16.1301C39.3847 16.1029 40.2551 15.5316 40.908 14.5524C41.0984 14.226 41.4248 14.0356 41.6696 13.818ZM44.0904 23.7191C43.9816 23.6647 43.9544 23.6647 43.9272 23.6375C43.5736 23.2839 43.22 22.9303 42.8664 22.5766C42.2408 21.951 41.6152 21.8694 41.1256 22.3318C40.6359 22.7943 40.7176 23.4471 41.316 24.0727C41.8872 24.6439 42.4856 25.2423 43.0568 25.8135C43.764 26.5208 44.3081 26.5208 45.0153 25.8135C46.2937 24.5351 47.5994 23.2295 48.8778 21.951C49.0138 21.815 49.177 21.7062 49.2042 21.543C49.2586 21.1894 49.3402 20.7814 49.2314 20.455C49.0954 20.047 48.6602 19.8294 48.225 19.9654C47.9258 20.047 47.5994 20.2374 47.3817 20.455C46.2665 21.5158 45.1785 22.631 44.0904 23.7191Z" fill="white"/>
<path id="Vector_13" d="M46.3478 40.9372C45.831 40.4204 45.4229 39.9852 45.0149 39.55C44.2805 38.8155 43.7637 38.8155 43.0565 39.5228C42.6213 39.958 42.2404 40.3932 41.7236 40.9372C41.7236 38.6795 41.7236 36.6123 41.7236 34.5994C42.3765 34.3546 43.0293 34.1098 43.6821 33.8922C43.9269 33.8106 44.2261 33.8378 44.4437 33.8922C45.0693 34.0826 45.695 34.3274 46.375 34.5722C46.3478 36.6123 46.3478 38.7067 46.3478 40.9372Z" fill="white"/>
<path id="Vector_14" d="M44.0908 23.7191C45.1788 22.6038 46.2669 21.5158 47.3821 20.4278C47.5997 20.2101 47.9261 20.0197 48.2253 19.9381C48.6605 19.8293 49.0957 20.0197 49.2317 20.4278C49.3405 20.7542 49.2589 21.1622 49.2045 21.5158C49.1773 21.679 48.9869 21.7878 48.8781 21.9238C47.5997 23.2022 46.3213 24.5079 45.0156 25.7863C44.3084 26.4935 43.7644 26.4935 43.0572 25.7863C42.4859 25.2151 41.8875 24.6167 41.3163 24.0455C40.6907 23.4198 40.6363 22.7942 41.1259 22.3046C41.6155 21.8422 42.2411 21.9238 42.8668 22.5494C43.2204 22.903 43.574 23.2566 43.9276 23.6102C43.9548 23.6647 43.982 23.6646 44.0908 23.7191Z" fill="#4777A7"/>
</g>
</g>
<defs>
<clipPath id="clip0_583_298">
<rect width="55" height="55" fill="white" transform="translate(0.378906)"/>
</clipPath>
</defs>
</svg>
