<svg width="178" height="47" viewBox="0 0 178 47" fill="none" xmlns="http://www.w3.org/2000/svg">
<g id="3 1" clip-path="url(#clip0_341_550)">
<g id="Calque_1">
<path id="Vector" d="M41.0281 28.1492C9.81387 28.1492 0 22.2251 0 22.2251C0 22.2251 10.9398 32.9529 41.0281 32.9529H41.0813V28.1492H41.0281Z" fill="#9A1915"/>
<path id="Vector_2" d="M41.0811 1.05344V12.6443H46.6194V23.8452H41.0811V28.1492C72.242 28.1492 81.7249 22.2251 81.7249 22.2251C81.7249 22.2251 71.1313 32.9302 41.0811 32.9491V46.4024H86.6547V1.05344H41.0811Z" fill="#004899"/>
<path id="Vector_3" d="M35.3867 12.6443H41.0848V23.8263H35.3867V12.6443Z" fill="white"/>
<path id="Vector_4" d="M35.3867 12.6443H41.0316V23.8263H35.3867V12.6443Z" fill="#9A1915"/>
<path id="Vector_5" d="M103.285 2.59787L102.593 3.12404C102.23 2.64151 101.757 2.25218 101.212 1.98843C100.661 1.72996 100.057 1.60048 99.4473 1.60989C98.7656 1.60514 98.0943 1.77736 97.4998 2.10956C96.9215 2.42485 96.4403 2.89066 96.1076 3.45716C95.778 4.03347 95.6086 4.68677 95.6169 5.34985C95.6062 5.84349 95.6987 6.33395 95.8886 6.7901C96.0785 7.24626 96.3616 7.65815 96.72 7.99962C97.088 8.35377 97.5238 8.63075 98.0015 8.81412C98.4791 8.99749 98.9889 9.08352 99.5006 9.0671C100.092 9.07477 100.677 8.94938 101.212 8.70029C101.748 8.45119 102.22 8.08485 102.593 7.62865L103.285 8.15482C102.852 8.71436 102.29 9.16221 101.646 9.46078C100.955 9.77068 100.205 9.92575 99.4473 9.91502C98.766 9.94909 98.0857 9.83076 97.4564 9.56873C96.8271 9.3067 96.2648 8.90763 95.8109 8.40087C95.0654 7.53932 94.667 6.43352 94.6926 5.29685C94.6802 4.69451 94.7942 4.09622 95.0274 3.54023C95.2605 2.98424 95.6077 2.48278 96.0467 2.06792C96.4943 1.63402 97.025 1.29414 97.6072 1.06849C98.1895 0.842831 98.8114 0.736015 99.4359 0.754391C100.205 0.74344 100.967 0.909249 101.661 1.23892C102.308 1.55051 102.866 2.01758 103.285 2.59787ZM105.035 0.970158H105.914V4.6382H110.391V0.970158H111.27V9.7144H110.391V5.49748H105.914V9.7144H105.035V0.970158ZM117.002 0.970158L121.103 9.7144H120.152L118.775 6.83372H114.971L113.601 9.7144H112.631L116.778 0.970158H117.002ZM116.892 2.81364L115.37 5.98958H118.383L116.892 2.81364ZM122.057 9.7144L123.297 0.970158H123.453L127.021 8.16239L130.555 0.970158H130.703L131.962 9.7144H131.107L130.236 3.45716L127.128 9.7144H126.896L123.761 3.40416L122.906 9.70683L122.057 9.7144ZM133.727 0.970158H135.458C136.006 0.945759 136.552 1.02938 137.067 1.21621C137.432 1.37443 137.741 1.63821 137.953 1.97328C138.169 2.31277 138.282 2.70722 138.277 3.1089C138.281 3.48157 138.183 3.84829 137.992 4.16881C137.791 4.5002 137.501 4.76902 137.155 4.94481C137.536 5.06086 137.894 5.24562 138.208 5.48991C138.454 5.69729 138.652 5.95569 138.786 6.24698C138.922 6.54291 138.992 6.86435 138.992 7.18955C138.999 7.52339 138.935 7.85496 138.804 8.16232C138.673 8.46968 138.478 8.74582 138.231 8.97246C137.663 9.4769 136.918 9.73806 136.158 9.69925H133.743L133.727 0.970158ZM134.591 1.82944V4.62305H135.093C135.547 4.64584 136.001 4.58947 136.436 4.4565C136.713 4.35086 136.95 4.16325 137.117 3.91897C137.283 3.68146 137.371 3.39832 137.368 3.1089C137.376 2.92976 137.341 2.75131 137.266 2.58814C137.191 2.42497 137.079 2.28172 136.938 2.17012C136.543 1.91001 136.071 1.78999 135.599 1.82944H134.591ZM134.591 5.50505V8.8589H135.679C136.157 8.88273 136.635 8.81857 137.09 8.66963C137.383 8.55153 137.634 8.3484 137.809 8.08668C137.987 7.83351 138.082 7.53236 138.083 7.22361C138.09 6.84854 137.954 6.48472 137.702 6.20535C137.422 5.90308 137.054 5.69535 136.649 5.61104C136.134 5.52251 135.611 5.48699 135.089 5.50505H134.591ZM140.78 0.970158H142.529C143.192 0.949669 143.856 0.988945 144.511 1.0875C145.008 1.19011 145.456 1.45691 145.782 1.84458C146.115 2.25185 146.29 2.76545 146.272 3.2906C146.283 3.73192 146.165 4.16686 145.934 4.54356C145.706 4.90984 145.37 5.19683 144.972 5.36499C144.418 5.57424 143.828 5.67078 143.237 5.64889L146.398 9.70304H145.306L142.149 5.67539H141.655V9.7144H140.78V0.970158ZM141.655 1.82944V4.80097H143.176C143.616 4.82297 144.057 4.76656 144.477 4.63441C144.748 4.53299 144.979 4.3471 145.135 4.10446C145.293 3.86093 145.375 3.57651 145.371 3.28681C145.373 3.00149 145.29 2.72196 145.131 2.48431C144.982 2.25141 144.762 2.0713 144.504 1.9695C144.086 1.84659 143.65 1.79538 143.214 1.81808L141.655 1.82944ZM148.167 0.970158H153.203V1.82944H149.042V4.57006H153.165V5.42934H149.042V8.8589H153.165V9.7144H148.167V0.970158ZM158.106 9.7144V0.970158H159.924C160.895 0.925447 161.866 1.03145 162.804 1.28434C163.627 1.56001 164.331 2.10598 164.801 2.83257C165.295 3.61599 165.545 4.52742 165.52 5.45205C165.536 6.25894 165.341 7.05612 164.953 7.76492C164.615 8.39024 164.099 8.90244 163.47 9.23744C162.664 9.59744 161.784 9.76095 160.902 9.7144H158.106ZM158.951 8.88918H159.966C160.813 8.92703 161.662 8.85063 162.488 8.66206C163.125 8.46655 163.674 8.05884 164.044 7.50752C164.436 6.89998 164.633 6.18866 164.611 5.4672C164.633 4.70086 164.418 3.94624 163.994 3.30574C163.587 2.70806 162.981 2.27244 162.283 2.07549C161.393 1.87664 160.482 1.79393 159.571 1.82944H158.951V8.88918ZM167.22 0.970158H172.256V1.82944H168.095V4.57006H172.218V5.42934H168.095V8.8589H172.218V9.7144H167.22V0.970158ZM172.861 8.0829L173.622 7.63622C174.147 8.59771 174.763 9.08224 175.44 9.08224C175.731 9.08333 176.017 9.01311 176.273 8.87783C176.512 8.74835 176.712 8.55751 176.851 8.32516C176.983 8.10379 177.052 7.85161 177.053 7.59458C177.047 7.28433 176.943 6.98381 176.756 6.7353C176.327 6.19669 175.821 5.72354 175.254 5.33092C174.752 4.98781 174.294 4.58623 173.888 4.13474C173.586 3.75404 173.422 3.28349 173.42 2.7985C173.416 2.43453 173.511 2.07619 173.694 1.7613C173.872 1.44311 174.135 1.18082 174.455 1.00423C174.793 0.829673 175.17 0.743689 175.55 0.754391C175.958 0.751746 176.358 0.857613 176.711 1.06101C177.165 1.35783 177.554 1.74435 177.852 2.19662L177.137 2.73793C176.909 2.40261 176.623 2.11035 176.292 1.87486C176.063 1.73623 175.8 1.66411 175.531 1.66667C175.372 1.66001 175.214 1.68467 175.064 1.73924C174.915 1.7938 174.777 1.8772 174.66 1.98464C174.553 2.08628 174.467 2.20907 174.41 2.34525C174.352 2.48144 174.323 2.62804 174.326 2.77579C174.327 2.96604 174.367 3.15405 174.444 3.32845C174.553 3.54719 174.701 3.74463 174.881 3.9114C174.995 4.02118 175.372 4.31265 176.022 4.78204C176.625 5.18699 177.154 5.69139 177.586 6.27348C177.852 6.65446 178.003 7.104 178.019 7.56808C178.021 7.8781 177.957 8.18505 177.833 8.46926C177.709 8.75347 177.526 9.00867 177.296 9.21851C177.064 9.44616 176.788 9.62535 176.485 9.74559C176.182 9.86584 175.858 9.92473 175.531 9.91881C175.017 9.9246 174.512 9.77695 174.082 9.49484C173.567 9.12873 173.148 8.64439 172.861 8.0829ZM95.0958 46.3834V31.5712H98.1807C100.406 31.5712 102.019 31.7453 103.023 32.1049C104.416 32.5693 105.609 33.4918 106.405 34.7207C107.251 36.0471 107.684 37.5936 107.648 39.1647C107.677 40.5323 107.344 41.8834 106.682 43.0826C106.109 44.1397 105.238 45.0068 104.175 45.5771C103.145 46.1147 101.707 46.3834 99.8506 46.3834H95.0958ZM96.526 44.979H98.2415C100.299 44.979 101.722 44.8503 102.521 44.6005C103.598 44.2666 104.528 43.576 105.157 42.6435C105.823 41.617 106.159 40.4126 106.119 39.1912C106.158 37.8934 105.794 36.6152 105.077 35.5307C104.385 34.5192 103.358 33.7822 102.175 33.4488C101.247 33.1661 99.7136 33.0248 97.5759 33.0248H96.526V44.979ZM110.52 31.5712H119.06V33.021H112.011V37.6543H118.995V39.1079H112.011V44.9336H118.995V46.3834H110.52V31.5712ZM127.352 31.5712H130.315C131.461 31.5301 132.608 31.6037 133.739 31.7908C134.557 31.9779 135.29 32.4291 135.823 33.074C136.378 33.7651 136.666 34.6314 136.634 35.5156C136.669 36.3964 136.39 37.2612 135.846 37.9572C135.288 38.6196 134.521 39.0757 133.67 39.2518C132.421 39.4573 131.155 39.5385 129.889 39.494H128.824V46.3834H127.352V31.5712ZM128.839 33.021V38.0404L131.361 38.0707C132.116 38.1075 132.872 38.014 133.594 37.7944C134.052 37.6242 134.443 37.3124 134.709 36.9048C134.977 36.494 135.118 36.0132 135.112 35.5232C135.116 35.0392 134.976 34.5649 134.709 34.1604C134.456 33.7615 134.081 33.4538 133.64 33.2822C132.938 33.0723 132.204 32.984 131.472 33.021H128.839ZM144.165 31.5712L151.103 46.3834H149.49L147.182 41.5343H140.742L138.437 46.3834H136.778L143.811 31.5712H144.165ZM143.975 34.7131L141.426 40.0808H146.516L143.975 34.7131ZM153.496 31.5712H156.459C157.581 31.5325 158.705 31.5997 159.814 31.7718C160.658 31.9479 161.418 32.4044 161.967 33.0664C162.532 33.7566 162.829 34.6258 162.804 35.5156C162.819 36.2641 162.622 37.0017 162.233 37.643C161.846 38.2618 161.276 38.7469 160.601 39.0322C159.667 39.3827 158.671 39.5449 157.673 39.5092L163.021 46.3834H161.18L155.831 39.5092H154.995V46.3834H153.504L153.496 31.5712ZM154.987 33.021V38.0594H157.547C158.291 38.0946 159.035 37.9985 159.746 37.7755C160.205 37.6023 160.596 37.2863 160.86 36.8745C161.127 36.4615 161.265 35.9798 161.26 35.4891C161.263 35.0082 161.122 34.5372 160.852 34.1377C160.601 33.7413 160.229 33.435 159.791 33.2633C159.084 33.0523 158.345 32.9639 157.608 33.0021L154.987 33.021ZM165.778 31.5712H167.27V46.3834H165.778V31.5712ZM169.145 43.6314L170.408 42.8744C171.298 44.5021 172.325 45.3159 173.489 45.3159C173.98 45.3175 174.463 45.1978 174.896 44.9677C175.31 44.7557 175.657 44.4333 175.897 44.0365C176.121 43.6608 176.239 43.2319 176.239 42.7949C176.227 42.2685 176.05 41.7589 175.733 41.3375C175.006 40.4258 174.148 39.625 173.188 38.9603C171.952 38.0253 171.18 37.3515 170.879 36.9351C170.371 36.286 170.094 35.487 170.092 34.6639C170.088 34.0551 170.248 33.4564 170.556 32.9302C170.866 32.3993 171.32 31.9653 171.865 31.6772C172.427 31.3716 173.058 31.2139 173.698 31.2192C174.389 31.2151 175.069 31.3926 175.668 31.734C176.436 32.2282 177.094 32.8721 177.605 33.6267L176.391 34.5427C176.01 33.9755 175.531 33.4796 174.976 33.0778C174.587 32.846 174.14 32.7255 173.687 32.7295C173.418 32.7191 173.149 32.7616 172.896 32.8545C172.644 32.9474 172.412 33.0888 172.215 33.2708C172.03 33.4419 171.884 33.6496 171.786 33.8804C171.688 34.1113 171.639 34.3602 171.644 34.6109C171.643 34.9345 171.712 35.2546 171.846 35.5496C172.03 35.919 172.28 36.2523 172.583 36.5338C172.777 36.7231 173.417 37.2152 174.504 38.0177C175.53 38.7024 176.43 39.5563 177.167 40.5426C177.618 41.1997 177.866 41.9731 177.882 42.7684C177.885 43.2942 177.777 43.8148 177.566 44.2967C177.354 44.7785 177.043 45.2108 176.654 45.5658C176.261 45.9537 175.794 46.2589 175.28 46.4631C174.767 46.6673 174.217 46.7664 173.664 46.7544C172.792 46.7633 171.936 46.5143 171.207 46.039C170.333 45.4154 169.625 44.5889 169.145 43.6314ZM95.2745 27.5171V14.1054H95.5674L104.529 24.3449V14.1244H105.88V27.5171H105.568L96.6744 17.3684V27.5171H95.2745ZM115.579 13.7685C116.528 13.7438 117.472 13.9112 118.353 14.2607C119.234 14.6101 120.035 15.1343 120.707 15.8013C121.379 16.4512 121.909 17.232 122.264 18.0951C122.618 18.9581 122.79 19.8847 122.769 20.8169C122.757 22.2112 122.333 23.5712 121.549 24.7272C120.766 25.8831 119.658 26.7838 118.363 27.3168C117.068 27.8498 115.644 27.9915 114.269 27.7241C112.894 27.4568 111.629 26.7923 110.631 25.8136C109.964 25.1746 109.437 24.406 109.081 23.5555C108.726 22.705 108.55 21.7909 108.565 20.8699C108.556 19.6147 108.88 18.3794 109.505 17.289C110.11 16.2144 110.994 15.3211 112.065 14.702C113.135 14.0829 114.353 13.7605 115.591 13.7685H115.579ZM115.636 15.0631C114.636 15.0753 113.656 15.3462 112.792 15.8493C111.928 16.3523 111.211 17.0702 110.71 17.9325C110.201 18.8264 109.939 19.8386 109.95 20.8661C109.946 21.6107 110.09 22.3487 110.373 23.0376C110.657 23.7266 111.075 24.353 111.603 24.8807C112.13 25.4084 112.758 25.827 113.449 26.1125C114.14 26.398 114.881 26.5447 115.629 26.5442C116.647 26.5526 117.648 26.2913 118.531 25.7871C119.403 25.3003 120.123 24.5839 120.612 23.7165C121.118 22.8243 121.381 21.8153 121.373 20.7904C121.382 19.7763 121.119 18.778 120.612 17.8984C120.111 17.0328 119.384 16.3184 118.508 15.8316C117.637 15.3263 116.645 15.0611 115.636 15.0631ZM124.111 15.419V14.1054H131.517V15.419H128.505V27.5322H127.124V15.419H124.111ZM137.425 14.1054L143.712 27.5171H142.263L140.171 23.1298H134.321L132.236 27.5171H130.734L137.101 14.1054H137.425ZM137.261 16.9331L134.945 21.8163H139.566L137.261 16.9331ZM145.607 14.1054H146.961V27.5171H145.607V14.1054ZM150.114 14.1054H152.804C153.822 14.0706 154.841 14.1327 155.847 14.2909C156.612 14.4506 157.301 14.8628 157.802 15.4606C158.315 16.0837 158.585 16.8699 158.563 17.6751C158.576 18.353 158.396 19.0208 158.045 19.6018C157.691 20.1618 157.174 20.6004 156.562 20.8586C155.712 21.1767 154.807 21.3234 153.899 21.2901L158.745 27.5171H157.098L152.229 21.2901H151.468V27.5171H150.118L150.114 14.1054ZM151.465 15.419V19.9614H153.789C154.465 19.9937 155.143 19.9078 155.79 19.7078C156.2 19.5591 156.553 19.2848 156.798 18.9242C157.045 18.5528 157.178 18.117 157.178 17.6713C157.179 17.2335 157.047 16.8057 156.798 16.4448C156.567 16.0894 156.23 15.8142 155.835 15.6575C155.192 15.4651 154.52 15.3845 153.85 15.419H151.465ZM161.438 14.1054H169.171V15.419H162.804V19.6208H169.126V20.9343H162.804V26.2035H169.126V27.5171H161.438V14.1054ZM170.103 25.0338L171.245 24.3487C172.048 25.82 172.979 26.5568 174.037 26.5594C174.48 26.5615 174.916 26.4535 175.307 26.2452C175.684 26.0541 175.999 25.7616 176.216 25.401C176.42 25.0573 176.527 24.6648 176.524 24.2654C176.515 23.7883 176.356 23.326 176.068 22.9443C175.407 22.1296 174.632 21.4132 173.766 20.8169C172.996 20.2927 172.292 19.6776 171.671 18.9848C171.21 18.3975 170.958 17.6744 170.955 16.9293C170.95 16.3688 171.096 15.8171 171.378 15.3319C171.658 14.85 172.07 14.4565 172.564 14.1963C173.069 13.9163 173.637 13.7691 174.215 13.7685C174.84 13.7651 175.454 13.9271 175.996 14.2379C176.692 14.6882 177.289 15.2756 177.749 15.9641L176.646 16.7931C176.298 16.2814 175.861 15.8354 175.356 15.4758C175.005 15.2654 174.602 15.1554 174.193 15.1578C173.949 15.1478 173.706 15.1862 173.477 15.2706C173.249 15.3551 173.039 15.484 172.861 15.6499C172.694 15.8053 172.562 15.9936 172.473 16.2029C172.384 16.4122 172.34 16.6377 172.344 16.865C172.344 17.1561 172.406 17.4438 172.526 17.7091C172.695 18.0447 172.922 18.3483 173.196 18.6063C173.376 18.7779 173.955 19.2245 174.934 19.9463C175.857 20.5621 176.668 21.3302 177.331 22.2175C177.74 22.8113 177.966 23.5113 177.981 24.2313C177.987 24.7092 177.892 25.183 177.702 25.6219C177.512 26.0608 177.231 26.455 176.878 26.7789C176.522 27.1298 176.099 27.4061 175.634 27.5914C175.168 27.7767 174.671 27.8673 174.17 27.8577C173.376 27.8668 172.597 27.6401 171.933 27.2067C171.155 26.6404 170.528 25.8948 170.103 25.0338Z" fill="#878787"/>
</g>
</g>
<defs>
<clipPath id="clip0_341_550">
<rect width="178" height="46" fill="white" transform="translate(0 0.754395)"/>
</clipPath>
</defs>
</svg>
