<svg width="113" height="79" viewBox="0 0 113 79" fill="none" xmlns="http://www.w3.org/2000/svg">
<g id="2 1" clip-path="url(#clip0_341_492)">
<g id="g10">
<g id="g12">
<path id="path14" d="M113 70.6523V36.0997H61.3125V70.6523H113Z" fill="#254AA5"/>
<path id="path16" d="M87.1286 39.8552L87.6218 41.388L89.2257 41.3802L87.9237 42.3213L88.4261 43.8516L87.1286 42.8987L85.8366 43.8516L86.339 42.3213L85.0342 41.3802L86.638 41.388L87.1286 39.8552Z" fill="#FFF200"/>
<path id="path18" d="M87.1286 62.9051L87.6218 64.4336L89.2257 64.4265L87.9237 65.3704L88.4261 66.9004L87.1286 65.9493L85.8366 66.9004L86.339 65.3704L85.0342 64.4265L86.638 64.4336L87.1286 62.9051Z" fill="#FFF200"/>
<path id="path20" d="M81.4072 41.388L81.8986 42.9201L83.5034 42.9155L82.2041 43.8524L82.7055 45.3805L81.4072 44.4298L80.1142 45.3805L80.6157 43.8524L79.3164 42.9155L80.9212 42.9201L81.4072 41.388Z" fill="#FFF200"/>
<path id="path22" d="M77.1985 45.6189L77.6863 47.1506L79.2938 47.1403L77.9872 48.0832L78.4887 49.6111L77.1985 48.6589L75.9028 49.6111L76.4061 48.0832L75.0986 47.1403L76.7079 47.1506L77.1985 45.6189Z" fill="#FFF200"/>
<path id="path24" d="M75.644 51.3687L76.13 52.8973L77.7393 52.8901L76.4364 53.8323L76.9333 55.358L75.644 54.4058L74.3493 55.358L74.8553 53.8323L73.5469 52.8901L75.1544 52.8973L75.644 51.3687Z" fill="#FFF200"/>
<path id="path26" d="M77.1784 57.1146L77.6707 58.6528L79.2719 58.6402L77.9707 59.5824L78.4759 61.1099L77.1784 60.1545L75.8836 61.1099L76.3888 59.5824L75.084 58.6431L76.6878 58.6528L77.1784 57.1146Z" fill="#FFF200"/>
<path id="path28" d="M81.4072 61.3437L81.8986 62.8768L83.5034 62.8686L82.2041 63.8079L82.7055 65.3372L81.4072 64.3872L80.1142 65.3372L80.6157 63.8079L79.3164 62.8686L80.9212 62.8768L81.4072 61.3437Z" fill="#FFF200"/>
<path id="path30" d="M92.8587 41.388L92.3691 42.9201L90.7598 42.9155L92.0655 43.8524L91.5621 45.3805L92.8587 44.4298L94.1516 45.3805L93.6511 43.8524L94.9522 42.9155L93.3511 42.9201L92.8587 41.388Z" fill="#FFF200"/>
<path id="path32" d="M97.0698 45.6189L96.5792 47.1506L94.9727 47.1403L96.2765 48.0832L95.7732 49.6111L97.0698 48.6589L98.3673 49.6111L97.8612 48.0832L99.1633 47.1403L97.5576 47.1506L97.0698 45.6189Z" fill="#FFF200"/>
<path id="path34" d="M98.6243 51.3687L98.1346 52.8973L96.5244 52.8901L97.831 53.8323L97.3277 55.358L98.6243 54.4058L99.9199 55.358L99.4184 53.8323L100.718 52.8901L99.113 52.8973L98.6243 51.3687Z" fill="#FFF200"/>
<path id="path36" d="M97.081 57.1146L96.5968 58.6528L94.9902 58.6402L96.295 59.5824L95.7908 61.1099L97.081 60.1545L98.3812 61.1099L97.8788 59.5824L99.1817 58.6431L97.5761 58.6528L97.081 57.1146Z" fill="#FFF200"/>
<path id="path38" d="M92.8587 61.3437L92.3691 62.8768L90.7598 62.8686L92.0655 63.8079L91.5621 65.3372L92.8587 64.3872L94.1516 65.3372L93.6511 63.8079L94.9522 62.8686L93.3511 62.8768L92.8587 61.3437Z" fill="#FFF200"/>
<path id="path40" d="M69.5567 29.2072V26.3499C68.5163 25.4595 64.3726 23.6768 61.8438 23.1168V25.1283C64.7341 25.8399 68.3367 27.9338 69.5567 29.2072Z" fill="#787F84"/>
<path id="path42" d="M71.6584 33.4715H74.1138C74.1868 29.866 71.2663 27.634 70.8496 27.3107V30.746C71.786 32.2692 71.6584 33.4715 71.6584 33.4715Z" fill="#787F84"/>
<path id="path44" d="M77.7686 26.2147V29.316C79.0022 30.6104 79.7435 31.624 80.3307 33.4863H82.9311C82.2363 30.639 80.5842 28.3121 77.7686 26.2147Z" fill="#787F84"/>
<path id="path46" d="M76.1859 27.9152V25.1208C73.8006 23.5751 69.083 21.4563 64.373 20.4713V22.4752C68.8997 23.5751 73.7122 25.9256 76.1859 27.9152Z" fill="#787F84"/>
<path id="path48" d="M82.8713 26.219V23.4542C80.0073 21.6455 74.1144 19.118 67.1602 17.6465V19.6469C73.8381 21.2635 78.9068 23.5701 82.8713 26.219Z" fill="#787F84"/>
<path id="path50" d="M84.7193 24.6308C84.7175 24.629 84.7139 27.6037 84.7139 27.6037C86.5393 29.0562 88.3063 30.9688 89.4834 33.4863H92.2434C91.2979 30.3535 87.7647 26.5562 84.7193 24.6308Z" fill="#787F84"/>
<path id="path52" d="M90.3251 24.4981V21.7322C84.8507 18.487 76.6464 15.6352 70.1289 14.4845V16.4788C77.4889 17.9585 86.2558 21.6033 90.3251 24.4981Z" fill="#787F84"/>
<path id="path54" d="M99.1789 33.4863H102.069C99.9913 28.4973 94.7823 24.4981 92.3496 22.976V25.9103C96.0342 28.645 97.3964 30.5998 99.1789 33.4863Z" fill="#787F84"/>
<path id="path56" d="M97.6632 22.7511V19.886C93.2292 17.1672 84.2571 13.0976 73.332 10.9888V13.0706C81.6448 14.8007 92.2426 18.9332 97.6632 22.7511Z" fill="#787F84"/>
<path id="path58" d="M108.562 33.4863H111.725C108.219 27.5077 104.207 24.0894 99.8721 21.2636V24.2661C103.085 26.527 106.527 29.8977 108.562 33.4863Z" fill="#787F84"/>
<path id="path60" d="M59.7724 24.5676V22.6783C56.9284 22.1423 51.9271 21.8003 49.7295 22.0873V23.5673C53.0294 23.3952 57.8882 24.0098 59.7724 24.5676Z" fill="#787F84"/>
<path id="path62" d="M47.5163 23.7026V22.2889C42.2364 22.8421 38.6149 24.6601 36.5195 26.2108V27.4266C39.511 25.007 43.6554 24.0055 47.5163 23.7026Z" fill="#787F84"/>
<path id="path64" d="M35.2998 28.695L35.3001 27.3193C30.4431 32.7871 36.52 37.3409 37.1665 37.7946V35.9252C33.7693 33.3524 34.1682 30.2167 35.2998 28.695Z" fill="#787F84"/>
<path id="path66" d="M39.0049 37.0837V39.0883C42.303 40.9173 45.6221 42.0736 50.3438 42.9212L50.31 40.2035C47.1013 40.009 42.6913 39.0926 39.0049 37.0837Z" fill="#787F84"/>
<path id="path68" d="M51.9205 40.2892L51.9062 43.1157C54.6673 43.3459 57.2744 43.4155 58.6956 43.4137V40.2339C56.5995 40.3748 52.7147 40.4023 51.9205 40.2892Z" fill="#787F84"/>
<path id="path70" d="M62.3016 21.9881V20.0609C58.902 19.371 52.3121 18.8571 48.4082 19.2222V20.7211C53.5606 20.5309 58.6562 21.1905 62.3016 21.9881Z" fill="#787F84"/>
<path id="path72" d="M48.5625 48.3715V45.3455C43.5071 44.8965 35.7344 43.1282 30.9072 39.5782V41.5964C36.2006 45.596 44.5725 47.8149 48.5625 48.3715Z" fill="#787F84"/>
<path id="path74" d="M29.0755 40.0815V38.0829C24.7922 34.0019 25.6285 29.8503 28.3941 27.1754V25.9256C23.0783 30.7624 25.0259 36.6164 29.0755 40.0815Z" fill="#787F84"/>
<path id="path76" d="M50.3389 45.5079V48.6411C53.4162 49.0747 56.0845 49.2138 58.6953 49.2138V45.7559C55.8797 45.771 51.589 45.6246 50.3389 45.5079Z" fill="#787F84"/>
<path id="path78" d="M29.8271 24.7479V25.9256C34.4334 22.4913 41.341 21.1072 46.1963 20.8436V19.4042C40.1835 19.7978 33.2759 22.1069 29.8271 24.7479Z" fill="#787F84"/>
<path id="path80" d="M22.332 41.9141V44.0793C28.9396 50.0511 39.8114 53.3023 46.3787 54.4372V51.0628C40.3274 50.383 29.3927 48.0325 22.332 41.9141Z" fill="#787F84"/>
<path id="path82" d="M65.0888 19.1508V17.2486C60.8184 16.4699 53.4397 15.6205 46.5293 16.2539V17.7607C52.3373 17.3553 60.5353 18.1123 65.0888 19.1508Z" fill="#787F84"/>
<path id="path84" d="M48.3232 51.2823V54.7744C51.2524 55.3615 56.0703 55.6345 58.6953 55.7309V51.839C57.1317 51.8944 50.2765 51.5001 48.3232 51.2823Z" fill="#787F84"/>
<path id="path86" d="M44.3117 17.9011V16.4367C39.175 16.88 29.9898 18.7129 23.8965 22.8457V24.0312C29.8267 19.9849 39.0052 18.189 44.3117 17.9011Z" fill="#787F84"/>
<path id="path88" d="M22.2243 25.2375V24.0312C19.4366 26.1379 12.601 33.2407 20.5136 42.2307V40.05C18.7548 38.0801 14.5097 31.6989 22.2243 25.2375Z" fill="#787F84"/>
<path id="path90" d="M68.0573 16.0324V14.0795C62.8861 13.0624 52.8094 12.1823 44.8867 12.9617V14.4703C51.8904 13.9274 61.8532 14.7191 68.0573 16.0324Z" fill="#787F84"/>
<path id="path92" d="M46.168 57.2637V60.9575C50.0683 61.7176 54.9254 62.1888 58.6955 62.3172V58.1256C54.1864 58.0489 50.2963 57.8347 46.168 57.2637Z" fill="#787F84"/>
<path id="path94" d="M44.0378 60.6078V57.0336C33.1943 55.4972 21.2459 51.5393 13.8418 44.2649V46.5704C22.6136 55.3259 37.1645 59.3622 44.0378 60.6078Z" fill="#787F84"/>
<path id="path96" d="M17.9062 20.7532V21.916C25.1554 17.2925 35.0867 15.3051 42.6732 14.6309V13.1605C35.3795 13.794 24.6984 16.2829 17.9062 20.7532Z" fill="#787F84"/>
<path id="path98" d="M12.0118 44.3373V41.9612C9.1735 38.0836 6.38861 30.4352 16.1968 23.1116V21.916C5.18158 29.8074 7.9269 39.4672 12.0118 44.3373Z" fill="#787F84"/>
<path id="path100" d="M4.40625 45.8281V48.4037C12.7275 59.2195 29.9086 65.5863 40.5919 67.8419V63.8929C29.3677 61.9889 12.3132 56.4786 4.40625 45.8281Z" fill="#787F84"/>
<path id="path102" d="M71.2382 12.6234V10.5963C66.123 9.52562 53.6912 8.14449 42.7422 9.28653V10.8443C51.8972 10.037 63.4503 11.0221 71.2382 12.6234Z" fill="#787F84"/>
<path id="path104" d="M40.5306 11.0335V9.51064C31.0294 10.4821 19.2331 13.775 12.3398 18.2882V19.4952C20.9997 14.1747 32.4922 11.7954 40.5306 11.0335Z" fill="#787F84"/>
<path id="path106" d="M42.9121 64.2694V68.3183C45.3515 68.941 54.6116 70.2686 58.6951 70.3008V65.6595C52.4631 65.4614 46.0981 64.7833 42.9121 64.2694Z" fill="#787F84"/>
<path id="path108" d="M10.4822 20.7211V19.4952C7.69374 21.2972 -5.50984 31.2303 2.60083 45.564V42.6731C-2.47211 32.1069 5.26071 24.4388 10.4822 20.7211Z" fill="#787F84"/>
</g>
</g>
</g>
<defs>
<clipPath id="clip0_341_492">
<rect width="113" height="78" fill="white" transform="translate(0 0.754395)"/>
</clipPath>
</defs>
</svg>
