<svg width="130" height="35" viewBox="0 0 130 35" fill="none" xmlns="http://www.w3.org/2000/svg">
<circle cx="17.7709" cy="17.3021" r="17.3021" fill="#333333"/>
<path d="M14.7524 23.7655C15.7991 24.3073 16.9876 24.6131 18.2453 24.6131C22.4471 24.6131 25.8534 21.2069 25.8534 17.0051C25.8534 12.8033 22.4471 9.39706 18.2453 9.39706C14.0435 9.39706 10.6373 12.8033 10.6373 17.0051C10.6373 18.2045 10.9155 19.3411 11.4113 20.3519L10.6596 23.5697L10.3365 24.9527L11.708 24.584L14.7524 23.7655Z" stroke="white" stroke-width="1.7"/>
<path d="M22.1154 18.6875L20.4761 17.8678C20.3992 17.8294 20.3121 17.8162 20.2272 17.83C20.1423 17.8438 20.064 17.884 20.0032 17.9449L19.3167 18.6313C18.3303 18.4727 16.7758 16.9187 16.6176 15.9322L17.304 15.2457C17.3649 15.185 17.4051 15.1066 17.4189 15.0217C17.4327 14.9368 17.4195 14.8497 17.3811 14.7728L16.5614 13.1335C16.5346 13.0798 16.4963 13.0326 16.4492 12.9953C16.4021 12.958 16.3474 12.9315 16.289 12.9177C16.2305 12.9039 16.1697 12.9031 16.1109 12.9154C16.0522 12.9277 15.9968 12.9528 15.9487 12.9888L14.3094 14.2183C14.2585 14.2565 14.2172 14.306 14.1888 14.3629C14.1603 14.4198 14.1455 14.4825 14.1455 14.5462C14.1455 18.4682 16.7807 21.1034 20.7027 21.1034C20.7664 21.1034 20.8291 21.0886 20.886 21.0601C20.9429 21.0317 20.9924 20.9904 21.0306 20.9395L22.2601 19.3002C22.2961 19.2521 22.3212 19.1968 22.3335 19.138C22.3458 19.0792 22.345 19.0184 22.3312 18.96C22.3174 18.9015 22.2909 18.8468 22.2536 18.7997C22.2163 18.7526 22.1692 18.7143 22.1154 18.6875Z" fill="white"/>
<circle cx="112.564" cy="17.3021" r="17.3021" fill="#333333"/>
<path d="M114.011 25.6187H110.12V17.7635H108.175V14.7377H110.12V12.9219C110.12 10.4544 111.218 8.98554 114.338 8.98554H116.935V12.0121H115.312C114.097 12.0121 114.016 12.4346 114.016 13.2239L114.011 14.7374H116.953L116.608 17.7635H114.011V25.6187Z" fill="white"/>
<circle cx="65.1674" cy="17.3021" r="17.3021" fill="#333333"/>
<rect x="56.726" y="8.91029" width="16.8168" height="16.766" rx="1.15" stroke="white" stroke-width="1.7"/>
<circle cx="65.0582" cy="17.3032" r="3.89667" fill="#333333" stroke="white" stroke-width="1.7"/>
<path d="M69.995 11.2739C69.3837 11.2739 68.8877 11.7693 68.8877 12.3808C68.8877 12.9921 69.3837 13.4881 69.995 13.4881C70.6064 13.4881 71.1023 12.9921 71.1023 12.3808C71.1023 11.7695 70.6064 11.2735 69.995 11.2735V11.2739Z" fill="white"/>
</svg>
