<svg width="41" height="40" viewBox="0 0 41 40" fill="none" xmlns="http://www.w3.org/2000/svg">
<g id="Group 9787">
<rect id="Rectangle 599" x="0.120117" y="0.323486" width="40.1538" height="39.2183" rx="19.6091" fill="#51CB5F"/>
<g id="Group 954">
<g id="Group 9956">
<path id="Vector" d="M16.5791 26.2417C17.7849 26.9193 19.1721 27.3032 20.649 27.3032C25.2482 27.3032 28.9858 23.563 28.9858 18.9646C28.9858 14.3662 25.2482 10.6261 20.649 10.6261H20.6455C16.0464 10.6261 12.3087 14.3652 12.3087 18.9646C12.3087 20.5539 12.7558 22.0445 13.5333 23.3109L12.8399 25.3778L12.0661 27.6844L14.3835 26.9436L16.5791 26.2417Z" fill="#51CB5F" stroke="white" stroke-width="2.46469"/>
<g id="Group 9955">
<path id="Vector_2" d="M24.188 22.4451L24.1277 22.5054C23.8271 22.8084 23.4242 22.9884 22.998 23.01H22.7005C21.1265 23.01 19.8612 22.4225 18.5246 21.0895C17.1049 19.6698 16.5326 18.3331 16.6117 16.6159H16.6116C16.6332 16.1897 16.8131 15.7868 17.1161 15.4863L17.1764 15.426C17.5576 15.0432 18.0965 14.8616 18.6316 14.9357C19.1666 15.0097 19.636 15.3307 19.899 15.8025L19.9819 15.9532H19.9818C20.0864 16.1437 20.1265 16.363 20.0959 16.5783C20.0654 16.7935 19.9658 16.993 19.8123 17.1469L19.3078 17.6515C19.5991 18.2122 19.9807 18.7211 20.4375 19.1577C20.8741 19.6145 21.383 19.9961 21.9437 20.2874L22.4445 19.7903C22.602 19.6356 22.8061 19.537 23.0253 19.5098C23.2445 19.4825 23.4664 19.5282 23.6571 19.6397L23.8077 19.7226C24.2796 19.9856 24.6006 20.4549 24.6745 20.99C24.7486 21.5251 24.567 22.0639 24.1842 22.4451L24.188 22.4451Z" fill="white"/>
</g>
</g>
</g>
</g>
</svg>
